<svg width="371" height="367" viewBox="0 0 371 367" fill="none" xmlns="http://www.w3.org/2000/svg">
<path opacity="0.1" d="M214.141 -29.5423C245.011 -60.4992 291.187 -74.4853 336.574 -62.2307C404.149 -43.9847 444.381 25.5222 426.435 93.0152C420.49 115.375 408.906 134.706 393.616 149.901L214.141 -29.5423Z" fill="url(#paint0_linear_1388_12831)" stroke="url(#paint1_linear_1388_12831)"/>
<path opacity="0.1" d="M287.299 74.3224L107.945 -103.832" stroke="white"/>
<path opacity="0.1" fill-rule="evenodd" clip-rule="evenodd" d="M463.242 220.222C432.251 251.547 385.713 265.742 339.975 253.392C272.133 235.074 231.742 165.294 249.759 97.5324C255.773 74.9135 267.535 55.3789 283.061 40.071L463.242 220.222Z" fill="url(#paint2_linear_1388_12831)"/>
<defs>
<linearGradient id="paint0_linear_1388_12831" x1="213.727" y1="-29.6367" x2="394.367" y2="149.62" gradientUnits="userSpaceOnUse">
<stop stop-color="white" stop-opacity="0.9"/>
<stop offset="1" stop-color="white" stop-opacity="0.1"/>
</linearGradient>
<linearGradient id="paint1_linear_1388_12831" x1="213.727" y1="-29.6367" x2="394.367" y2="149.62" gradientUnits="userSpaceOnUse">
<stop stop-color="white" stop-opacity="0.9"/>
<stop offset="1" stop-color="white" stop-opacity="0.5"/>
</linearGradient>
<linearGradient id="paint2_linear_1388_12831" x1="279.554" y1="42.9591" x2="460.193" y2="222.216" gradientUnits="userSpaceOnUse">
<stop stop-color="white" stop-opacity="0.1"/>
<stop offset="1" stop-color="white" stop-opacity="0.9"/>
</linearGradient>
</defs>
</svg>
