<svg width="14" height="78" viewBox="0 0 14 78" fill="none" xmlns="http://www.w3.org/2000/svg">
<path d="M6.8372 59L13.6744 51H9.99285V25H13.6744L6.8372 17L0 25H3.68157V51H0L6.8372 59Z" fill="url(#paint0_linear_1739_4053)"/>
<path d="M0.728 12.818H13.286V13.672H0.728V12.818ZM0.812 3.718H13.216V4.586H0.812V3.718ZM1.778 10.76H12.404V11.6H1.778V10.76ZM6.426 2.304H7.476V13.224H6.426V2.304ZM11.298 1.324L11.858 2.136C11.2327 2.248 10.5233 2.35067 9.73 2.444C8.946 2.528 8.12 2.60267 7.252 2.668C6.384 2.724 5.51133 2.77533 4.634 2.822C3.75667 2.85933 2.90733 2.88267 2.086 2.892C2.086 2.77067 2.058 2.63067 2.002 2.472C1.95533 2.304 1.90867 2.16867 1.862 2.066C2.674 2.038 3.514 2.00533 4.382 1.968C5.25933 1.92133 6.118 1.87 6.958 1.814C7.80733 1.74867 8.60067 1.674 9.338 1.59C10.0847 1.506 10.738 1.41733 11.298 1.324ZM3.248 7.96V9.024H10.808V7.96H3.248ZM3.248 6.196V7.246H10.808V6.196H3.248ZM2.226 5.44H11.872V9.794H2.226V5.44Z" fill="black"/>
<path d="M7.084 70.472H12.88V71.382H7.084V70.472ZM6.216 73.818H13.51V74.756H6.216V73.818ZM6.832 62.94H12.236V63.864H6.832V62.94ZM9.45 68.652H10.486V74.378H9.45V68.652ZM11.942 62.94H12.138L12.334 62.898L12.992 63.164C12.6653 64.2653 12.194 65.2173 11.578 66.02C10.962 66.8133 10.2433 67.4807 9.422 68.022C8.61 68.5633 7.74667 68.988 6.832 69.296C6.776 69.1653 6.692 69.016 6.58 68.848C6.47733 68.68 6.37467 68.5447 6.272 68.442C6.89733 68.2647 7.504 68.0173 8.092 67.7C8.68933 67.3733 9.24 66.986 9.744 66.538C10.248 66.09 10.6913 65.5813 11.074 65.012C11.4567 64.4427 11.746 63.8127 11.942 63.122V62.94ZM8.33 63.836C8.638 64.5733 9.044 65.2453 9.548 65.852C10.0613 66.4587 10.6633 66.9813 11.354 67.42C12.054 67.8493 12.824 68.1713 13.664 68.386C13.5987 68.4513 13.524 68.54 13.44 68.652C13.356 68.7547 13.2767 68.8573 13.202 68.96C13.1273 69.0627 13.0667 69.1653 13.02 69.268C12.1427 68.988 11.3447 68.6053 10.626 68.12C9.91667 67.6253 9.296 67.042 8.764 66.37C8.232 65.6887 7.79333 64.928 7.448 64.088L8.33 63.836ZM0.714 63.738H6.538V64.676H0.714V63.738ZM0.546 71.746H6.664V72.684H0.546V71.746ZM3.15 62.226H4.102V66.09H3.15V62.226ZM3.234 66.132H4.004V70.206H4.102V75.148H3.15V70.206H3.234V66.132ZM1.75 68.54V69.828H5.516V68.54H1.75ZM1.75 66.524V67.784H5.516V66.524H1.75ZM0.952 65.74H6.342V70.612H0.952V65.74Z" fill="black"/>
<defs>
<linearGradient id="paint0_linear_1739_4053" x1="0" y1="58" x2="0" y2="20" gradientUnits="userSpaceOnUse">
<stop stop-color="#1D963F"/>
<stop offset="0.475" stop-color="#FF7100"/>
<stop offset="1" stop-color="#FF0000"/>
</linearGradient>
</defs>
</svg>
