<svg width="15" height="14" viewBox="0 0 15 14" fill="none" xmlns="http://www.w3.org/2000/svg">
<path d="M13.3345 7.40724C13.3336 8.2645 13.3271 8.99314 13.2784 9.591C13.2219 10.2848 13.106 10.8645 12.8467 11.346C12.7324 11.5584 12.5919 11.7486 12.4208 11.9197C11.9352 12.4052 11.3166 12.6252 10.5327 12.7306C9.76668 12.8335 8.78504 12.8335 7.53245 12.8335H7.47015C6.21755 12.8335 5.2359 12.8335 4.46998 12.7306C3.68602 12.6252 3.0674 12.4052 2.58184 11.9197C2.15138 11.4892 1.92909 10.9534 1.81087 10.2888C1.69475 9.63592 1.6735 8.82363 1.66909 7.81493C1.66797 7.55838 1.66797 7.28701 1.66797 7.00071V6.96904C1.66796 5.71644 1.66796 4.73479 1.77093 3.96886C1.87634 3.1849 2.09629 2.56628 2.58184 2.08073C3.0674 1.59517 3.68602 1.37522 4.46998 1.26982C5.15112 1.17824 6.02749 1.16811 7.09414 1.16699C7.31889 1.16675 7.5013 1.34906 7.5013 1.57383C7.5013 1.7986 7.31884 1.98072 7.09408 1.98096C6.01234 1.9821 5.20735 1.99195 4.57843 2.07651C3.88473 2.16978 3.46651 2.34716 3.15739 2.65628C2.84828 2.96539 2.67089 3.38361 2.57762 4.07732C2.48279 4.78274 2.48192 5.70968 2.48192 7.00019C2.48192 7.1578 2.48192 7.31017 2.48211 7.45775L3.02536 6.98245C3.51985 6.54974 4.26511 6.57459 4.72972 7.03915L7.0575 9.36694C7.43043 9.73987 8.01744 9.79068 8.44893 9.48746L8.61074 9.37371C9.23164 8.93738 10.0717 8.98795 10.6358 9.49563L12.1717 10.878C12.3263 10.5533 12.4181 10.1267 12.4671 9.52491C12.5133 8.95791 12.5197 8.26923 12.5205 7.40729C12.5208 7.18254 12.7029 7.00019 12.9276 7.00019C13.1524 7.00019 13.3348 7.18248 13.3345 7.40724Z" fill="white"/>
<path fill-rule="evenodd" clip-rule="evenodd" d="M10.707 1.16699C9.46961 1.16699 8.85086 1.16699 8.46645 1.55141C8.08203 1.93584 8.08203 2.55456 8.08203 3.79199C8.08203 5.02943 8.08203 5.64815 8.46645 6.03258C8.85086 6.41699 9.46961 6.41699 10.707 6.41699C11.9445 6.41699 12.5632 6.41699 12.9476 6.03258C13.332 5.64815 13.332 5.02943 13.332 3.79199C13.332 2.55456 13.332 1.93584 12.9476 1.55141C12.5632 1.16699 11.9445 1.16699 10.707 1.16699ZM11.8914 4.39302L11.0164 5.26802C10.8455 5.43887 10.5685 5.43887 10.3977 5.26802L9.52269 4.39302C9.35183 4.22217 9.35183 3.94515 9.52269 3.7743C9.69355 3.60345 9.97051 3.60345 10.1414 3.7743L10.2695 3.90244V2.62533C10.2695 2.3837 10.4654 2.18783 10.707 2.18783C10.9486 2.18783 11.1445 2.3837 11.1445 2.62533V3.90244L11.2727 3.7743C11.4435 3.60345 11.7205 3.60345 11.8914 3.7743C12.0622 3.94515 12.0622 4.22217 11.8914 4.39302Z" fill="white"/>
</svg>
