<svg width="189" height="189" viewBox="0 0 189 189" fill="none" xmlns="http://www.w3.org/2000/svg">
<circle cx="91.5" cy="97.5" r="60.5" fill="white"/>
<mask id="mask0_4241_3771" style="mask-type:alpha" maskUnits="userSpaceOnUse" x="31" y="37" width="121" height="121">
<circle cx="91.5" cy="97.5" r="60.5" fill="white"/>
</mask>
<g mask="url(#mask0_4241_3771)">
<path d="M62.1823 132.151C62.1016 132.203 62.0156 132.247 61.9258 132.281C61.823 132.328 61.7177 132.369 61.6103 132.404C61.4682 132.455 61.3235 132.499 61.1769 132.536C60.7982 132.639 60.4111 132.708 60.0202 132.743C59.0584 132.828 58.0894 132.715 57.1733 132.411C56.8006 132.287 56.4393 132.131 56.0936 131.944C55.9607 131.874 55.8314 131.798 55.7063 131.715C55.6081 131.656 55.5139 131.592 55.4242 131.521C55.2754 131.409 55.1959 131.345 55.2036 131.337C55.2113 131.329 55.5473 131.564 56.1372 131.86C56.4829 132.032 56.8413 132.177 57.2093 132.294C58.1127 132.578 59.0623 132.689 60.0074 132.62C60.3925 132.591 60.7749 132.533 61.1512 132.447C61.8027 132.294 62.172 132.128 62.1823 132.151Z" fill="#263238"/>
<path d="M63.0003 132.649C62.9699 132.72 62.9293 132.786 62.8797 132.846C62.7594 133.019 62.6256 133.183 62.4796 133.335C61.5106 134.36 60.2071 135.008 58.8018 135.165C58.5915 135.188 58.3798 135.196 58.1683 135.19C58.0907 135.192 58.0132 135.184 57.9375 135.167C57.9375 135.142 58.2683 135.147 58.789 135.07C60.1582 134.867 61.4272 134.236 62.4129 133.269C62.7874 132.899 62.9823 132.634 63.0003 132.649Z" fill="#263238"/>
<path d="M60.6992 138.594C61.1226 137.595 61.8294 136.742 62.733 136.137C62.7587 136.167 62.1996 136.621 61.6405 137.303C61.0814 137.984 60.7351 138.614 60.6992 138.594Z" fill="#263238"/>
<path d="M123.798 116.503C123.738 116.55 123.673 116.59 123.603 116.621C123.525 116.663 123.443 116.7 123.359 116.73C123.251 116.777 123.139 116.817 123.026 116.85C122.731 116.942 122.426 117.002 122.118 117.031C121.359 117.1 120.594 116.989 119.887 116.707C119.601 116.591 119.328 116.446 119.071 116.276C118.971 116.211 118.875 116.141 118.784 116.064C118.713 116.011 118.646 115.952 118.584 115.888C118.479 115.786 118.425 115.728 118.43 115.72C118.435 115.712 118.686 115.927 119.12 116.197C119.379 116.352 119.651 116.484 119.933 116.592C120.279 116.721 120.637 116.814 121.002 116.871C121.369 116.919 121.739 116.932 122.108 116.909C122.408 116.887 122.706 116.837 122.998 116.761C123.498 116.628 123.785 116.478 123.798 116.503Z" fill="#263238"/>
<path d="M71.6562 79.5056C72.2016 79.1516 72.721 78.7594 73.2105 78.332C73.9978 77.5972 74.4364 76.8267 74.4749 76.8522C74.4107 77.035 74.319 77.207 74.203 77.3625C73.6865 78.1439 72.9946 78.7954 72.182 79.2658C72.0204 79.3726 71.843 79.4535 71.6562 79.5056Z" fill="#263238"/>
<path d="M73.8359 80.4624C73.9197 80.0675 74.0479 79.6832 74.2181 79.3168C74.3481 78.9335 74.5201 78.5656 74.731 78.2197C74.6458 78.6142 74.5177 78.9984 74.3489 79.3653C74.2189 79.7486 74.0468 80.1165 73.8359 80.4624Z" fill="#263238"/>
<path d="M111.726 83.585C111.532 83.5847 111.341 83.5466 111.162 83.4728C110.72 83.3211 110.315 83.0815 109.969 82.7686C109.623 82.4544 109.344 82.0744 109.149 81.6511C109.06 81.4801 109.004 81.294 108.984 81.1025C109.079 81.2679 109.165 81.4382 109.241 81.6128C109.451 82.0107 109.73 82.369 110.064 82.6716C110.399 82.9734 110.783 83.2159 111.2 83.3886C111.518 83.5162 111.731 83.5621 111.726 83.585Z" fill="#263238"/>
<path d="M111.887 81.9119C111.733 81.9288 111.576 81.9122 111.428 81.8634C110.691 81.6838 110.044 81.2441 109.607 80.626C109.509 80.5057 109.437 80.3668 109.395 80.2178C109.982 81.074 110.872 81.6788 111.887 81.9119Z" fill="#263238"/>
<path d="M122.36 121.16C122.226 121.268 122.077 121.354 121.916 121.415C121.538 121.583 121.141 121.707 120.734 121.783C120.326 121.858 119.911 121.884 119.497 121.862C119.323 121.867 119.149 121.84 118.984 121.783C119.559 121.778 120.134 121.734 120.703 121.653C121.265 121.525 121.819 121.36 122.36 121.16Z" fill="#263238"/>
<path d="M123.046 123.26C122.241 124.283 121.367 125.249 120.43 126.153C120.815 125.629 121.236 125.131 121.689 124.663C122.11 124.167 122.564 123.698 123.046 123.26Z" fill="#263238"/>
<path d="M124.07 153.484C123.982 153.509 123.892 153.522 123.801 153.522C123.696 153.532 123.59 153.536 123.485 153.535C123.345 153.542 123.205 153.542 123.065 153.535C122.699 153.512 122.336 153.459 121.98 153.374C121.544 153.268 121.119 153.122 120.71 152.938C120.305 152.747 119.918 152.52 119.553 152.259C119.262 152.039 118.989 151.795 118.738 151.529C118.628 151.422 118.54 151.313 118.458 151.218C118.388 151.137 118.323 151.052 118.263 150.963C118.207 150.893 118.158 150.817 118.117 150.736C118.138 150.721 118.374 151.032 118.805 151.458C119.064 151.707 119.342 151.936 119.636 152.144C120.356 152.653 121.164 153.025 122.021 153.241C122.37 153.329 122.724 153.39 123.083 153.425C123.685 153.489 124.067 153.458 124.07 153.484Z" fill="#263238"/>
<path d="M57.1845 88.0127C57.1845 88.0127 44.8353 110.233 46.0894 116.856C46.8255 120.747 50.5572 123.138 53.3168 122.724C55.0096 122.469 76.7097 112.669 76.7097 112.669L72.6959 101.599L58.6771 107.391L63.1167 89.1175L57.1845 88.0127Z" fill="#FFBE9C"/>
<path d="M63.1161 89.1175C63.1161 89.1175 64.7985 86.8493 65.0165 85.4996C65.2345 84.1499 65.1781 83.5019 65.0165 82.1522C64.8549 80.8025 64.7036 78.1057 65.1576 76.9703C65.2933 76.6647 65.3316 76.325 65.2674 75.997C65.2032 75.6691 65.0396 75.3685 64.7985 75.1359L64.9601 74.595L63.1161 74.0566C63.1161 74.0566 63.2802 73.4086 62.6826 73.2453C62.2774 73.1356 60.1179 72.9901 58.7714 72.9263C58.4526 72.9083 58.1359 72.9876 57.8636 73.1535C57.5913 73.3195 57.3765 73.5643 57.248 73.8551C56.5247 75.4854 55.1654 78.6517 55.0859 79.5625C54.9756 80.8025 57.2557 84.6373 57.2018 85.3925C57.1479 86.1477 57.7994 87.4336 56.8222 88.5766L63.1161 89.1175Z" fill="#FFBE9C"/>
<path d="M57.1367 79.0878C57.1367 79.0878 57.2034 78.9755 57.3188 78.7637C57.482 78.4607 57.611 78.1407 57.7035 77.8095V77.7661L57.7471 77.784C58.2271 77.9778 58.7507 78.0395 59.2629 77.9626H59.3142V78.0111C59.379 78.2982 59.5172 78.5639 59.7153 78.7824C59.9134 79.001 60.1648 79.165 60.4452 79.2587C60.5919 79.3061 60.7499 79.3061 60.8966 79.2587C60.965 79.2291 61.0229 79.1796 61.0627 79.1168C61.1025 79.0541 61.1224 78.9808 61.1197 78.9066C61.1132 78.7353 61.0934 78.5647 61.0608 78.3963C61.0325 78.2228 60.9992 78.0468 60.9607 77.8708C60.869 77.4219 60.7394 76.9815 60.5735 76.5542C60.4934 76.3577 60.3678 76.1828 60.2067 76.044C60.0442 75.9209 59.857 75.8338 59.6578 75.7888L58.5191 75.5133C58.2013 75.4076 57.8662 75.3635 57.5317 75.3831C57.262 75.4344 57.0133 75.563 56.8161 75.7531C56.6636 75.8978 56.5285 76.0596 56.4135 76.2353C56.2237 76.5262 56.1314 76.6946 56.1211 76.6895C56.1337 76.6437 56.1527 76.5999 56.1775 76.5593C56.2186 76.4777 56.2801 76.3578 56.3699 76.2072C56.4799 76.0223 56.6116 75.851 56.7623 75.697C56.9671 75.49 57.2283 75.3472 57.5137 75.2862C57.8601 75.2579 58.2087 75.2977 58.5396 75.4036L59.6835 75.6587C59.9004 75.7059 60.1049 75.798 60.2836 75.9291C60.459 76.0793 60.5968 76.268 60.6863 76.4802C60.858 76.9154 60.9919 77.3644 61.0864 77.8223C61.1249 78.0009 61.1582 78.1795 61.1864 78.3555C61.2219 78.532 61.2416 78.7113 61.2454 78.8913C61.2445 78.9894 61.2171 79.0855 61.1659 79.1694C61.1135 79.2537 61.0353 79.319 60.9428 79.3557C60.7704 79.4179 60.5824 79.4233 60.4068 79.371C60.1056 79.2698 59.8361 79.0924 59.6247 78.8562C59.4133 78.62 59.2674 78.3332 59.2013 78.0238L59.2629 78.0672C58.7315 78.1386 58.1906 78.0645 57.6984 77.8529L57.7548 77.8248C57.6534 78.1597 57.5095 78.4804 57.3265 78.7791C57.2797 78.8593 57.2283 78.9368 57.1726 79.0112C57.1624 79.0674 57.1419 79.0903 57.1367 79.0878Z" fill="#FF996C"/>
<path d="M61.0445 76.2126C61.0445 76.1922 61.301 76.2917 61.7114 76.3478C62.2493 76.4243 62.7979 76.3648 63.3066 76.1748C63.8154 75.9849 64.2678 75.6706 64.6223 75.2609C64.8993 74.9471 65.0173 74.7123 65.0378 74.7251C65.0583 74.7379 65.025 74.7914 64.9711 74.8986C64.8927 75.0477 64.8008 75.1895 64.6967 75.3221C64.3464 75.765 63.8806 76.1038 63.3502 76.3017C62.8198 76.4997 62.245 76.5491 61.6883 76.4447C61.5216 76.4141 61.3584 76.3671 61.201 76.3044C61.0984 76.261 61.0317 76.2279 61.0445 76.2126Z" fill="#FF996C"/>
<path d="M61.2617 82.1004C61.511 81.876 61.7034 81.5963 61.8234 81.2839C61.9456 80.9431 62.0097 80.5844 62.0132 80.2225C62.026 79.8118 61.9901 79.3576 62.0132 78.8754C62.0128 78.0352 62.3232 77.2242 62.8852 76.597C63.0602 76.4132 63.2715 76.2672 63.5059 76.1684C63.5684 76.1398 63.6337 76.1176 63.7008 76.102C63.7236 76.0975 63.7472 76.0975 63.77 76.102C63.4637 76.2385 63.1868 76.4326 62.9544 76.6735C62.4336 77.2963 62.1478 78.0806 62.1465 78.8907C62.1312 79.3653 62.1645 79.822 62.1465 80.2404C62.136 80.6147 62.0596 80.9843 61.9209 81.3324C61.8265 81.5672 61.6832 81.7794 61.5002 81.9549C61.4313 82.0188 61.3502 82.0682 61.2617 82.1004Z" fill="#FF996C"/>
<path d="M57.9531 80.7845C58.0202 80.7736 58.0886 80.7736 58.1557 80.7845C58.3377 80.7932 58.5186 80.8163 58.6969 80.8534C59.8946 81.0899 60.9781 81.7186 61.7746 82.6394C61.8936 82.776 62.0024 82.9209 62.1003 83.0731C62.1695 83.1829 62.2029 83.2441 62.1952 83.2492C62.1875 83.2543 62.0131 83.0323 61.7028 82.7006C61.2954 82.2735 60.8301 81.9051 60.3204 81.6061C59.808 81.3109 59.2562 81.0893 58.6815 80.9478C58.2455 80.8356 57.9531 80.805 57.9531 80.7845Z" fill="#FF996C"/>
<path d="M59.4922 75.6739C59.586 75.3554 59.7052 75.0449 59.8487 74.7452L59.8666 74.7044H59.9128C60.3343 74.7956 60.7692 74.8077 61.1952 74.7401C61.727 74.6535 62.2331 74.4514 62.6776 74.1482C63.0161 73.9109 63.1905 73.717 63.2059 73.7323C63.2213 73.7476 63.1751 73.791 63.1008 73.8803C62.9886 74.0052 62.8659 74.1205 62.734 74.2247C62.2901 74.561 61.7693 74.7828 61.2182 74.8702C60.7744 74.9419 60.3204 74.922 59.8846 74.8115L59.9487 74.7809C59.8218 75.0907 59.6691 75.3894 59.4922 75.6739Z" fill="#FF996C"/>
<path d="M64.8162 74.8195C65.4478 73.6587 65.7157 72.3365 65.5856 71.023C65.9504 71.3334 66.2547 71.7079 66.4833 72.1278C66.8286 71.5935 67.0226 70.9765 67.045 70.3418C67.473 70.8515 67.6984 71.4996 67.6784 72.1635C67.6545 72.8208 67.5503 73.4728 67.3681 74.1051C67.8025 73.9434 68.204 73.7048 68.553 73.4009C68.4412 73.8798 68.2286 74.3296 67.9292 74.7207C67.6297 75.1117 67.2503 75.4351 66.8159 75.6695C66.3815 75.9039 65.9021 76.044 65.4093 76.0804C64.9164 76.1168 64.4215 76.0488 63.957 75.8809" fill="#263238"/>
<path d="M62.287 76.6079C60.4682 77.1485 58.9322 78.3719 58.0039 80.0191L59.4119 79.4068C59.0722 80.2346 58.9181 81.1262 58.9605 82.0194L60.1583 80.9019C60.2532 80.8151 60.3865 80.7207 60.502 80.7794C60.5713 80.8295 60.6183 80.9046 60.6328 80.9886C60.7559 81.3943 60.8892 81.8025 61.0046 82.2082C61.1145 81.1612 61.3118 80.1252 61.5945 79.1108C61.8782 78.0915 62.4113 77.1579 63.1462 76.3936" fill="#263238"/>
<path d="M69.3689 75.0976C69.3689 75.0976 69.3151 75.1486 69.2074 75.2226C69.0524 75.324 68.8904 75.4143 68.7226 75.4931C67.6094 76.0339 66.3553 76.2193 65.132 76.0237C64.9489 75.9957 64.7681 75.9548 64.5909 75.9013C64.4652 75.8656 64.3959 75.84 64.3985 75.8298C64.4011 75.8196 64.6858 75.8783 65.1448 75.9293C65.742 75.9961 66.3454 75.9867 66.9401 75.9013C67.5367 75.8108 68.1193 75.6453 68.6739 75.4089C69.1073 75.2252 69.3561 75.0772 69.3689 75.0976Z" fill="#263238"/>
<path d="M58.2118 80.2946C58.0927 79.9966 57.9255 79.72 57.7168 79.4756C57.4789 79.2592 57.208 79.0818 56.9141 78.95C56.9141 78.9347 57.032 78.9347 57.209 78.9934C57.4373 79.0762 57.6435 79.2099 57.812 79.3841C57.9805 79.5583 58.1067 79.7685 58.181 79.9986C58.2426 80.1721 58.2375 80.2946 58.2118 80.2946Z" fill="#FF996C"/>
<path d="M64.1749 81.407C63.7981 81.3187 63.4072 81.3074 63.0259 81.3738C62.6525 81.4801 62.3038 81.6587 62 81.8994C62 81.8994 62.059 81.7718 62.2257 81.6264C62.4477 81.4407 62.711 81.3103 62.9938 81.2459C63.2765 81.1816 63.5706 81.1852 63.8517 81.2564C64.0672 81.3151 64.18 81.3917 64.1749 81.407Z" fill="#FF996C"/>
<path d="M66.6285 72.4795C66.6285 72.4795 66.6413 72.5458 66.6285 72.6607C66.62 72.8241 66.5959 72.9864 66.5567 73.1454C66.4273 73.6753 66.1868 74.172 65.8509 74.603C65.5149 75.0339 65.0912 75.3893 64.6075 75.6458C64.4622 75.7228 64.3102 75.7869 64.1535 75.8371C64.0971 75.8602 64.0374 75.874 63.9766 75.878C63.9766 75.855 64.21 75.7683 64.5613 75.5616C65.0166 75.2901 65.4174 74.9372 65.7437 74.5206C66.0675 74.1021 66.3117 73.6283 66.4643 73.1225C66.5823 72.7321 66.6054 72.477 66.6285 72.4795Z" fill="#455A64"/>
<path d="M60.264 80.2945C60.2532 80.0696 60.281 79.8444 60.346 79.6286C60.6074 78.5623 61.2654 77.6341 62.1875 77.0313C62.3699 76.899 62.5737 76.7989 62.7902 76.7354C62.7902 76.7558 62.5697 76.8706 62.2414 77.1104C61.812 77.4225 61.4361 77.8016 61.1283 78.233C60.8227 78.6669 60.5889 79.1467 60.4358 79.6541C60.3153 80.0394 60.2819 80.2945 60.264 80.2945Z" fill="#455A64"/>
<path d="M59.8125 78.432C59.9127 78.2966 60.0329 78.177 60.169 78.0773C60.4799 77.8154 60.8148 77.5831 61.1692 77.3833C61.5221 77.1798 61.8929 77.009 62.2772 76.8731C62.4337 76.806 62.5999 76.7638 62.7696 76.748C62.7825 76.7889 62.0515 77.0261 61.2308 77.4905C60.4101 77.9549 59.8407 78.4651 59.8125 78.432Z" fill="#455A64"/>
<path d="M66.9048 74.6814C66.2173 75.2687 65.3436 75.5958 64.4375 75.605C64.4375 75.5642 65.0274 75.4927 65.707 75.235C66.3867 74.9773 66.8817 74.6456 66.9048 74.6814Z" fill="#455A64"/>
<path d="M73.2383 101.402C73.2383 101.402 75.5158 99.2613 76.9058 98.9934C79.963 98.4041 84.6 97.6565 84.6 97.6565L99.0497 96.8554C99.0497 96.8554 107.77 96.3783 109.65 97.4269C111.958 98.7026 113.358 113.669 113.358 113.669L111.145 131.246L113.066 160H73.5691L74.3668 137.905L73.2383 101.402Z" fill="#FF725E"/>
<path d="M76.2266 99.2305C76.2266 99.2305 61.1409 105.833 60.8972 105.933C60.6536 106.032 67.2372 119.226 67.2372 119.226L77.8449 115.228L76.2266 99.2305Z" fill="#FF725E"/>
<path d="M107.085 96.8787L118.132 87.5508L126.713 98.111L113.12 114.509C113.12 114.509 108.837 114.338 107.809 108.957C106.78 103.576 107.085 96.8787 107.085 96.8787Z" fill="#FF725E"/>
<path d="M112.606 114.034C112.558 114.05 112.508 114.06 112.458 114.062C112.313 114.075 112.167 114.075 112.022 114.062C111.483 114.026 110.961 113.859 110.501 113.577C109.823 113.152 109.259 112.57 108.857 111.881C108.368 111.052 107.983 110.167 107.708 109.245C107.427 108.32 107.244 107.368 107.162 106.405C107.098 105.621 107.103 104.832 107.177 104.048C107.23 103.519 107.315 102.994 107.433 102.476L107.541 102.058C107.552 102.009 107.568 101.961 107.59 101.915C107.588 101.966 107.581 102.016 107.569 102.066C107.547 102.174 107.519 102.315 107.485 102.487C107.426 102.857 107.326 103.39 107.279 104.056C107.222 104.835 107.227 105.617 107.295 106.395C107.384 107.347 107.569 108.287 107.846 109.202C108.12 110.117 108.5 110.997 108.98 111.825C109.367 112.502 109.911 113.078 110.567 113.503C111.013 113.785 111.518 113.959 112.042 114.014C112.396 114.06 112.604 114.019 112.606 114.034Z" fill="#263238"/>
<path d="M107.534 96.4756C107.573 96.4934 107.278 97.1134 107.119 97.9273C106.96 98.7412 106.952 99.4224 106.911 99.425C106.8 98.401 107.018 97.3684 107.534 96.4756Z" fill="#263238"/>
<path d="M106.836 97.4092C106.874 97.4296 106.497 98.0776 106.259 98.9604C106.134 99.4978 106.036 100.041 105.966 100.588C105.929 100.427 105.92 100.26 105.941 100.096C105.961 99.6997 106.025 99.3071 106.131 98.9247C106.234 98.5414 106.38 98.1709 106.567 97.82C106.634 97.6695 106.724 97.5308 106.836 97.4092Z" fill="#263238"/>
<path d="M73.958 126.115C73.944 126.043 73.9363 125.969 73.9349 125.896C73.9349 125.74 73.9119 125.533 73.8965 125.27C73.8708 124.712 73.8324 123.926 73.7888 122.974C73.7067 121.027 73.6195 118.336 73.5323 115.361C73.4451 112.386 73.3707 109.707 73.3143 107.745C73.2861 106.78 73.2656 105.995 73.2476 105.449C73.2476 105.193 73.2476 104.977 73.2476 104.821C73.2404 104.748 73.2404 104.675 73.2476 104.602C73.2618 104.673 73.2696 104.746 73.2707 104.818C73.2707 104.973 73.2835 105.182 73.3092 105.446C73.3348 106.005 73.3707 106.788 73.4169 107.742C73.4964 109.692 73.5861 112.383 73.6733 115.358C73.7605 118.333 73.8349 121.012 73.8913 122.972C73.917 123.936 73.9401 124.722 73.9555 125.268C73.9555 125.523 73.9555 125.74 73.9555 125.896C73.9625 125.968 73.9633 126.042 73.958 126.115Z" fill="#263238"/>
<path d="M74.0664 128.373L111.601 127.658L111.201 130.847L111.488 136.3L74.3254 136.746L74.0664 128.373Z" fill="#E0E0E0"/>
<path d="M73.5664 160L74.323 136.746L111.486 136.3L113.068 160H73.5664Z" fill="#455A64"/>
<path d="M101.924 133.874C101.874 133.915 101.82 133.95 101.763 133.979L101.288 134.259C100.873 134.499 100.262 134.836 99.5109 135.244C98.0028 136.055 95.8869 137.122 93.4941 138.186C91.1012 139.25 88.8904 140.102 87.2746 140.679C86.4667 140.964 85.8101 141.189 85.3536 141.334L84.8253 141.5C84.7651 141.522 84.7034 141.539 84.6406 141.551C84.6967 141.519 84.756 141.494 84.8176 141.475L85.3305 141.286C85.7819 141.125 86.4334 140.888 87.2361 140.589C88.8416 139.992 91.0447 139.125 93.4351 138.066C95.8254 137.007 97.9439 135.951 99.4622 135.16C100.232 134.764 100.834 134.44 101.257 134.213L101.745 133.958C101.802 133.925 101.862 133.897 101.924 133.874Z" fill="#263238"/>
<path d="M102.989 116.94C102.985 116.983 102.975 117.025 102.961 117.065C102.932 117.157 102.898 117.272 102.861 117.41C102.771 117.708 102.63 118.137 102.45 118.665C102.091 119.724 101.558 121.171 100.896 122.747C100.234 124.324 99.5701 125.712 99.0649 126.71C98.8084 127.207 98.6007 127.605 98.4493 127.881L98.2749 128.192C98.2553 128.23 98.2312 128.266 98.2031 128.299C98.2141 128.259 98.2296 128.219 98.2493 128.182C98.2929 128.093 98.3416 127.985 98.4032 127.855C98.5494 127.557 98.7443 127.156 98.9802 126.666C99.4624 125.661 100.111 124.265 100.776 122.696C101.44 121.127 101.984 119.691 102.366 118.642C102.548 118.132 102.699 117.713 102.812 117.4C102.863 117.267 102.904 117.145 102.938 117.063C102.949 117.02 102.966 116.979 102.989 116.94Z" fill="#263238"/>
<g opacity="0.3">
<path d="M85.8164 141.143C88.653 141.735 91.7153 141.115 94.28 139.77C96.8447 138.425 99.0119 136.563 100.948 134.412C98.4698 135.803 95.9195 137.064 93.308 138.188C90.8654 139.305 88.3646 140.291 85.8164 141.143Z" fill="black"/>
</g>
<path d="M60.8984 105.933C60.8984 105.933 61.3267 107.048 61.5807 107.607C63.4196 111.648 65.3585 115.549 67.2384 119.226L68.39 118.792L62.1475 105.39L60.8984 105.933Z" fill="#455A64"/>
<path d="M116.879 88.6174L125.632 99.4226L126.715 98.1188L118.133 87.5586L116.879 88.6174Z" fill="#455A64"/>
<path d="M113.809 101.078C113.76 101.191 113.701 101.3 113.632 101.402C113.509 101.606 113.337 101.912 113.137 102.28C112.091 104.234 111.428 106.368 111.183 108.569C111.137 108.993 111.108 109.334 111.096 109.572C111.095 109.695 111.082 109.818 111.057 109.939C111.041 109.817 111.035 109.693 111.042 109.569C111.042 109.332 111.054 108.985 111.09 108.561C111.188 107.453 111.403 106.357 111.732 105.293C112.062 104.228 112.505 103.202 113.055 102.231C113.265 101.861 113.45 101.568 113.588 101.372C113.653 101.267 113.726 101.169 113.809 101.078Z" fill="#263238"/>
<path d="M102.009 66.0063C101.004 64.4091 100.073 62.7686 98.3673 62.0899C96.8285 61.475 95.0639 61.8577 93.42 61.5796C92.2222 61.3883 91.1117 62.294 90.1627 63.0492C88.9778 63.9984 89.7037 63.5085 88.9035 63.3554C88.2033 63.2227 87.7904 64.4449 87.3185 64.9755C86.3439 66.0726 82.702 65.5317 81.8838 66.7411C81.2119 67.7234 81.3709 67.8561 81.0169 68.994C80.6348 70.2289 79.5114 71.0581 78.5702 71.9511C77.6289 72.8441 76.7749 74.1095 77.1416 75.3495C77.4699 76.439 78.6548 77.1125 78.9652 78.2096C79.1909 79.0082 78.901 79.8502 78.8138 80.6743C78.7266 81.4984 78.9728 82.5087 79.7653 82.769L88.7675 85.9939C91.8273 87.5554 94.987 89.1449 98.4135 89.4383C101.84 89.7317 105.643 88.4178 107.272 85.402C106.77 85.339 106.311 85.087 105.99 84.6978C106.453 84.5298 106.872 84.2609 107.218 83.9108C107.563 83.5608 107.825 83.1384 107.985 82.6746C107.313 82.9782 106.492 82.4399 106.259 81.7408C106.026 81.0417 106.231 80.2788 106.515 79.6001C106.8 78.9215 107.164 78.2632 107.285 77.5361C107.369 76.871 107.237 76.1965 106.907 75.6121C106.577 75.0278 106.066 74.5645 105.451 74.2907C106.787 73.413 107.077 71.3107 106.026 70.109C105.536 69.5476 104.843 69.2058 104.256 68.7465C103.926 68.4843 103.623 68.1903 103.351 67.8688" fill="#263238"/>
<path d="M100.186 84.9052C101.153 82.6447 102.11 80.3663 102.669 77.9756C103.228 75.585 103.377 73.0565 102.723 70.6888C102.623 70.3291 101.723 67.9027 101.348 67.9053C101.092 67.9053 101.571 70.1428 101.417 70.3597C99.9452 72.434 99.3656 75.0313 99.3477 77.57C99.3537 80.0384 99.635 82.4985 100.186 84.9052Z" fill="#263238"/>
<path d="M90.2685 103.117C94.0874 103.372 99.1373 96.8606 99.1373 96.8606L101.261 75.5947C102.002 69.4714 99.045 63.9604 92.882 63.3914L92.31 63.3735C89.5314 63.2797 86.819 64.2297 84.7124 66.0346C82.6057 67.8396 81.2592 70.3672 80.9406 73.1148C80.3302 78.4166 79.7223 84.2797 79.6582 87.1347C79.5326 93.0412 85.4366 94.1587 85.4366 94.1587C85.4366 94.1587 85.3494 95.5237 85.2134 97.2535C84.9133 101.137 88.7297 103.122 90.2685 103.122V103.117Z" fill="#FFBE9C"/>
<path d="M85.4277 94.1586C85.4277 94.1586 89.1593 94.503 93.2321 92.1455C93.2321 92.1455 91.2009 96.3757 85.2969 95.646L85.4277 94.1586Z" fill="#FF996C"/>
<path d="M83.0868 77.47C83.0769 77.6896 83.1537 77.9043 83.3008 78.0683C83.448 78.2323 83.6537 78.3325 83.8742 78.3476C83.9819 78.36 84.091 78.3507 84.195 78.3203C84.2991 78.29 84.3959 78.2391 84.4799 78.1709C84.5638 78.1026 84.6331 78.0182 84.6837 77.9228C84.7343 77.8274 84.7651 77.7229 84.7744 77.6154C84.7836 77.396 84.7066 77.1816 84.5596 77.0177C84.4126 76.8539 84.2072 76.7534 83.987 76.7377C83.8793 76.7254 83.7702 76.7347 83.6661 76.765C83.5621 76.7954 83.4652 76.8462 83.3813 76.9145C83.2973 76.9828 83.228 77.0671 83.1774 77.1625C83.1269 77.258 83.096 77.3625 83.0868 77.47Z" fill="#263238"/>
<path d="M82.1149 75.6076C82.2175 75.7199 82.8844 75.2709 83.7871 75.304C84.6899 75.3372 85.3516 75.8143 85.4542 75.7046C85.5055 75.6561 85.4055 75.4494 85.1208 75.2351C84.7352 74.9494 84.2703 74.7891 83.7897 74.7759C83.3159 74.7588 82.8489 74.8919 82.4561 75.156C82.1688 75.3602 82.0611 75.5566 82.1149 75.6076Z" fill="#263238"/>
<path d="M91.5125 78.0488C91.5032 78.2686 91.5806 78.4834 91.7282 78.6473C91.8757 78.8112 92.0817 78.9114 92.3024 78.9265C92.4101 78.9385 92.519 78.9289 92.6229 78.8984C92.7268 78.8679 92.8236 78.817 92.9074 78.7488C92.9913 78.6806 93.0606 78.5964 93.1113 78.5012C93.162 78.4059 93.193 78.3016 93.2026 78.1942C93.2118 77.9748 93.1348 77.7604 92.9878 77.5966C92.8408 77.4327 92.6354 77.3323 92.4152 77.3165C92.3074 77.3046 92.1983 77.3141 92.0943 77.3446C91.9902 77.375 91.8933 77.4259 91.8093 77.494C91.7252 77.5622 91.6556 77.6464 91.6047 77.7417C91.5537 77.8369 91.5224 77.9413 91.5125 78.0488Z" fill="#263238"/>
<path d="M90.8525 76.2757C90.9526 76.3905 91.6219 75.9389 92.5247 75.972C93.4275 76.0052 94.0892 76.4823 94.1918 76.3726C94.2405 76.3267 94.1431 76.1175 93.8558 75.9032C93.4709 75.618 93.007 75.4576 92.5273 75.4439C92.0526 75.4264 91.5847 75.5596 91.1911 75.8241C90.9038 76.0282 90.8012 76.2246 90.8525 76.2757Z" fill="#263238"/>
<path d="M87.5258 83.1364C87.5258 83.0853 86.9693 82.968 86.0537 82.82C85.8228 82.7894 85.6048 82.7358 85.5689 82.5648C85.5578 82.3249 85.6204 82.0873 85.7485 81.8836C85.987 81.3325 86.2358 80.7508 86.4974 80.1436C87.5386 77.6636 88.2927 75.6225 88.2029 75.5817C88.1131 75.5409 87.177 77.5182 86.1332 79.9956L85.4125 81.7484C85.315 82.0035 85.156 82.3021 85.2612 82.6541C85.2919 82.7368 85.3411 82.8115 85.4051 82.8725C85.469 82.9335 85.5461 82.9792 85.6305 83.0062C85.7589 83.045 85.8915 83.0681 86.0255 83.0751C86.9488 83.1644 87.5207 83.1874 87.5258 83.1364Z" fill="#263238"/>
<path d="M90.2957 73.7651C90.3881 74.0202 91.2986 73.8875 92.3706 74.0202C93.4427 74.1529 94.3095 74.4259 94.4506 74.2039C94.5122 74.0967 94.3608 73.8671 94.0095 73.6298C93.5417 73.3406 93.0139 73.1609 92.4661 73.1043C91.9183 73.0477 91.3647 73.1157 90.8472 73.3033C90.4548 73.4538 90.2675 73.6605 90.2957 73.7651Z" fill="#263238"/>
<path d="M85.178 72.5994C84.9472 72.4386 84.2547 72.8035 83.3827 73.0025C82.5107 73.2015 81.7182 73.2168 81.5874 73.4643C81.5361 73.5817 81.6977 73.7603 82.0644 73.8802C82.5669 74.0209 83.0977 74.0271 83.6033 73.898C84.1111 73.7855 84.5789 73.5387 84.9575 73.1837C85.2242 72.9107 85.2832 72.681 85.178 72.5994Z" fill="#263238"/>
<path d="M100.617 79.9501C100.72 79.9093 104.736 78.8887 104.464 82.9199C104.192 86.9511 100.184 85.854 100.184 85.7264C100.184 85.5989 100.617 79.9501 100.617 79.9501Z" fill="#FFBE9C"/>
<path d="M101.527 84.2895C101.548 84.2895 101.596 84.3431 101.712 84.4069C101.875 84.4893 102.063 84.5058 102.238 84.4528C102.676 84.3227 103.081 83.6721 103.151 82.9449C103.183 82.5993 103.138 82.2509 103.02 81.9244C102.99 81.7959 102.928 81.6766 102.842 81.5766C102.755 81.4767 102.646 81.399 102.522 81.3503C102.443 81.3238 102.356 81.3258 102.278 81.3561C102.2 81.3864 102.135 81.443 102.094 81.5161C102.032 81.6259 102.053 81.7075 102.03 81.7126C102.007 81.7177 101.948 81.6386 101.991 81.4753C102.021 81.3771 102.084 81.2918 102.168 81.2329C102.286 81.1572 102.428 81.1298 102.566 81.1564C102.73 81.2003 102.88 81.2853 103.002 81.4032C103.123 81.5211 103.213 81.668 103.261 81.83C103.412 82.1903 103.471 82.582 103.433 82.9704C103.351 83.7792 102.884 84.514 102.286 84.6416C102.176 84.6653 102.061 84.6643 101.95 84.6387C101.84 84.6131 101.737 84.5636 101.648 84.4936C101.53 84.389 101.514 84.2972 101.527 84.2895Z" fill="#FF996C"/>
<path d="M84.0542 66.6345C83.4259 66.2262 85.552 64.2591 87.2165 63.6544C89.7351 62.7359 93.5027 62.3354 95.7007 63.1442C98.3449 64.106 100.492 65.6114 101.664 68.1602C102.836 70.7091 103.133 73.5972 102.843 76.3859C102.756 77.2355 102.6 78.1183 102.087 78.8046C101.456 79.6542 100.327 80.1339 100.292 81.356C100.29 81.5797 100.243 81.8008 100.155 82.0066C100.067 82.2123 99.9393 82.3988 99.7786 82.5552C98.9784 83.2823 98.1269 82.4786 97.7678 81.7081C96.9984 80.065 97.0369 78.1744 97.0959 76.3502C97.1369 75.0592 97.1831 73.7427 97.6396 72.5231C97.8961 71.8674 97.9551 71.8215 98.1654 71.1504C98.3757 70.4794 97.9371 69.3645 97.4421 68.8695L97.3062 68.7317C96.2341 67.6474 95.3724 66.6906 93.8951 67.0912C91.5535 67.7239 87.5679 68.6348 86.6087 67.7877C85.2289 66.5707 84.9339 65.8231 84.9339 65.8231L84.0542 66.6345Z" fill="#263238"/>
<path d="M94.8614 77.0666C94.8383 77.0972 95.0127 77.2477 95.2846 77.3013C95.5565 77.3549 95.777 77.2886 95.7693 77.2503C95.7616 77.212 95.5565 77.212 95.3154 77.161C95.0743 77.11 94.8845 77.0309 94.8614 77.0666Z" fill="#FF996C"/>
<path d="M94.9771 77.5537C94.9643 77.5895 95.1746 77.7068 95.4465 77.8089C95.7183 77.9109 95.9594 77.9722 95.9594 77.9339C95.9594 77.8956 95.7645 77.7834 95.4926 77.6788C95.2208 77.5742 94.9925 77.5155 94.9771 77.5537Z" fill="#FF996C"/>
<path d="M87.1523 70.8545C87.2541 70.974 87.3811 71.0698 87.5242 71.1351C88.1988 71.5029 88.9911 71.5945 89.7325 71.3903C89.8875 71.3605 90.0333 71.295 90.1582 71.1989C89.6601 71.3492 89.1364 71.3961 88.6194 71.3369C88.1023 71.2776 87.603 71.1134 87.1523 70.8545Z" fill="#FF996C"/>
<path d="M87.168 70.1504C87.5809 70.4847 88.0722 70.7094 88.596 70.8035C89.1199 70.8977 89.6592 70.8582 90.1636 70.6887C90.1636 70.6428 89.4634 70.8214 88.6247 70.6632C87.7861 70.505 87.1936 70.1096 87.168 70.1504Z" fill="#FF996C"/>
<path d="M86.2949 85.2054L88.5775 84.5089C88.9033 84.4094 89.2675 84.3124 89.5727 84.4655C89.6943 84.5394 89.7987 84.6381 89.8792 84.7551C89.9597 84.8721 90.0143 85.0047 90.0394 85.1442C90.1061 85.4172 90.1138 85.7055 90.1805 85.9811C90.2651 86.3383 90.437 86.7643 90.1805 87.0373C90.0161 87.1791 89.8057 87.257 89.5881 87.2568L87.3773 87.5119C87.0962 87.569 86.8051 87.555 86.5309 87.4711C86.3788 87.3992 86.2444 87.295 86.1371 87.1658C86.0299 87.0367 85.9524 86.8857 85.9102 86.7235C85.829 86.3984 85.7962 86.0631 85.8128 85.7285C85.8008 85.5841 85.8264 85.4391 85.8872 85.3075C85.9198 85.2429 85.9754 85.1926 86.043 85.1662C86.1107 85.1399 86.1858 85.1393 86.2539 85.1646" fill="#FF996C"/>
<path d="M89.5887 84.8542C89.5979 84.7672 89.5889 84.6793 89.5624 84.5959C89.536 84.5125 89.4925 84.4354 89.4348 84.3694C89.3788 84.3358 89.3165 84.3139 89.2516 84.3051C89.1868 84.2964 89.1208 84.3009 89.0578 84.3184C88.7346 84.3794 88.4165 84.4647 88.1063 84.5735L86.0135 85.2471V85.3288C85.976 85.4385 85.9703 85.5565 85.9971 85.6693C86.0238 85.7821 86.082 85.8851 86.1648 85.9666C86.2456 86.0408 86.3407 86.098 86.4442 86.1348C86.5478 86.1717 86.6577 86.1873 86.7675 86.1809C86.9826 86.2177 87.2018 86.2255 87.419 86.2039C88.0063 86.0278 88.6039 85.8926 89.1938 85.7166C89.3258 85.6756 89.4421 85.5955 89.5272 85.4869C89.601 85.2846 89.6222 85.0669 89.5887 84.8542Z" fill="white"/>
<path d="M86.3646 86.793C86.3421 86.9837 86.3925 87.1758 86.5057 87.3313C86.6032 87.4181 86.6852 87.5303 86.816 87.5227C87.1417 87.5048 87.5701 87.5992 87.8906 87.538C88.6036 87.3976 89.4295 87.219 90.1373 87.0787L90.2399 86.9716C90.3451 86.7828 90.0271 86.2546 89.8809 86.0964C89.7271 85.9414 89.52 85.8502 89.3012 85.8413C89.085 85.8341 88.8688 85.8538 88.6575 85.9L86.8622 86.2163C86.7308 86.225 86.6053 86.274 86.5031 86.3567C86.4064 86.4812 86.3573 86.6358 86.3646 86.793Z" fill="white"/>
<path d="M86.5354 87.4763C87.042 87.4947 87.5493 87.4785 88.0537 87.4279C88.5205 87.3717 89.0668 87.2595 89.6772 87.1217C89.8172 87.0996 89.9509 87.0483 90.0696 86.9712C90.1155 86.9264 90.1508 86.872 90.173 86.812C90.1952 86.752 90.2037 86.6878 90.1979 86.6242C90.1884 86.4605 90.1591 86.2986 90.1107 86.142C90.067 85.9736 90.026 85.8052 89.9824 85.6317C89.9255 85.3035 89.7987 84.9912 89.6105 84.7157C89.5249 84.6031 89.4072 84.5186 89.2728 84.4732C89.1384 84.4277 88.9934 84.4233 88.8565 84.4606C88.5718 84.5167 88.282 84.6239 88.0153 84.6979L87.2715 84.9198C86.361 85.175 85.7917 85.3306 85.7814 85.2949C85.7711 85.2592 86.3174 85.0398 87.2125 84.7387L87.946 84.4835C88.2153 84.3994 88.482 84.2871 88.8103 84.2131C88.9865 84.1712 89.1702 84.1712 89.3464 84.2131C89.5325 84.2722 89.6968 84.3849 89.8183 84.5371C90.0334 84.842 90.1779 85.1906 90.2414 85.5577C90.2851 85.7337 90.3286 85.9098 90.3722 86.068C90.4243 86.2421 90.4536 86.4222 90.4595 86.6038C90.4663 86.7067 90.4491 86.8099 90.409 86.9051C90.3689 87.0003 90.3072 87.0849 90.2286 87.1523C90.0797 87.2532 89.9095 87.3187 89.7311 87.3437C89.1841 87.4647 88.6298 87.5499 88.0717 87.5988C87.1099 87.6932 86.5226 87.5069 86.5354 87.4763Z" fill="#263238"/>
<path d="M89.2153 85.7134C88.8175 85.9509 88.3749 86.1046 87.915 86.1649C87.4623 86.2696 86.993 86.2826 86.5352 86.2032C86.5352 86.1624 87.1507 86.1726 87.8893 86.0348C88.628 85.8971 89.1999 85.6751 89.2153 85.7134Z" fill="#263238"/>
<path d="M87.7501 64.3431C87.5712 64.1484 87.4123 63.9364 87.2756 63.7104C87.1029 63.5078 86.9517 63.2881 86.8242 63.0547C87.2548 63.3862 87.577 63.8372 87.7501 64.3508V64.3431Z" fill="#455A64"/>
<path d="M88.6112 63.8503C88.5002 63.6418 88.4075 63.4241 88.3342 63.1997C88.221 62.9901 88.1274 62.7706 88.0547 62.5439C88.2435 62.7037 88.3831 62.9134 88.4574 63.1486C88.5724 63.364 88.6256 63.6068 88.6112 63.8503Z" fill="#455A64"/>
<path d="M89.4649 63.4242C89.429 63.4242 89.3444 63.2048 89.2751 62.9139C89.2135 62.7406 89.1933 62.5555 89.2161 62.373C89.252 62.373 89.3367 62.5925 89.4059 62.8833C89.4691 63.0563 89.4893 63.2418 89.4649 63.4242Z" fill="#455A64"/>
<path d="M86.826 64.8149C86.5938 64.6826 86.3931 64.502 86.2377 64.2853C86.0823 64.0686 85.9759 63.821 85.9258 63.5596C85.9617 63.5596 86.1002 63.8657 86.3464 64.2076C86.5926 64.5495 86.8516 64.7842 86.826 64.8149Z" fill="#455A64"/>
<path d="M87.2295 65.8765C87.0093 65.8328 86.8001 65.7461 86.6139 65.6214C86.4063 65.5328 86.2187 65.4035 86.0625 65.2412C86.2821 65.2867 86.4909 65.3733 86.678 65.4964C86.885 65.5861 87.0723 65.7153 87.2295 65.8765Z" fill="#455A64"/>
<path d="M87.9062 65.6441C87.8831 65.6722 87.6498 65.5038 87.4266 65.2308C87.2035 64.9578 87.0855 64.6976 87.1189 64.6797C87.1522 64.6619 87.3163 64.8838 87.5318 65.1466C87.7472 65.4094 87.9319 65.6161 87.9062 65.6441Z" fill="#455A64"/>
<path d="M88.653 65.1291C88.6171 65.1444 88.5094 64.9581 88.4094 64.7183C88.3093 64.4785 88.2581 64.2693 88.2914 64.2565C88.3247 64.2437 88.435 64.4249 88.5325 64.6673C88.6299 64.9097 88.6864 65.1163 88.653 65.1291Z" fill="#455A64"/>
<path d="M89.4553 64.6599C89.4194 64.6599 89.3681 64.466 89.345 64.2185C89.3219 63.971 89.3296 63.7669 89.3681 63.7618C89.4066 63.7567 89.4527 63.9583 89.4784 64.2058C89.504 64.4532 89.4989 64.6548 89.4553 64.6599Z" fill="#455A64"/>
<path d="M90.3581 64.4346C90.3197 64.4346 90.2863 64.2254 90.2786 63.9652C90.2709 63.7049 90.2991 63.4932 90.335 63.4932C90.3709 63.4932 90.4069 63.7024 90.412 63.9626C90.4171 64.2229 90.394 64.4321 90.3581 64.4346Z" fill="#455A64"/>
<path d="M90.3156 63.761C90.2594 63.527 90.2594 63.2832 90.3156 63.0492C90.3328 62.8097 90.4076 62.5778 90.5336 62.373C90.5348 62.6088 90.5055 62.8438 90.4464 63.0721C90.4347 63.3066 90.3906 63.5384 90.3156 63.761Z" fill="#455A64"/>
<path d="M90.9636 63.6262C90.9277 63.6262 90.9636 63.4272 91.0226 63.2027C91.0815 62.9782 91.1739 62.8072 91.2098 62.82C91.2457 62.8328 91.2098 63.019 91.1508 63.241C91.0918 63.463 90.9995 63.6365 90.9636 63.6262Z" fill="#455A64"/>
<path d="M97.6476 66.813C97.582 66.8638 97.5083 66.9034 97.4296 66.9303C97.2234 67.0205 97.0086 67.0897 96.7885 67.137C96.0585 67.2855 95.3046 67.2724 94.5802 67.0987C93.8633 66.922 93.1733 66.6508 92.5285 66.2925C92.272 66.1598 92.0848 66.0373 91.9514 65.9557C91.8791 65.9175 91.8127 65.8694 91.7539 65.8128C91.7539 65.795 92.0694 65.9634 92.5721 66.2108C93.2244 66.5431 93.9128 66.7999 94.6238 66.9763C95.3322 67.1451 96.0675 67.1702 96.7859 67.0502C97.3194 66.9456 97.6374 66.79 97.6476 66.813Z" fill="#455A64"/>
<path d="M95.4611 65.7796C94.923 65.8406 94.3781 65.7858 93.8632 65.6189C93.3376 65.4936 92.8457 65.2559 92.4219 64.9223C92.4424 64.8866 93.0579 65.2566 93.9017 65.4913C94.7455 65.726 95.4611 65.7362 95.4611 65.7796Z" fill="#455A64"/>
<path d="M98.7482 73.8907C98.6798 73.6952 98.6418 73.4904 98.6354 73.2835C98.5889 72.7883 98.5966 72.2896 98.6584 71.796C98.7215 71.3021 98.8376 70.8162 99.0047 70.3468C99.0629 70.1494 99.1493 69.9612 99.2611 69.7881C99.0566 70.4516 98.8989 71.1285 98.7892 71.8139C98.7252 72.5043 98.7115 73.1984 98.7482 73.8907Z" fill="#455A64"/>
<path d="M100.841 73.9163C100.693 73.7929 100.565 73.6464 100.464 73.4826C100.196 73.1036 99.9766 72.6931 99.8101 72.2604C99.6454 71.8264 99.5343 71.374 99.4792 70.9133C99.4496 70.7239 99.4496 70.5312 99.4792 70.3418C99.5796 70.9773 99.735 71.603 99.9434 72.212C100.193 72.8046 100.493 73.3749 100.841 73.9163Z" fill="#455A64"/>
<path d="M102.066 62.136C104.01 61.5482 105.736 60.4034 107.029 58.8447C107.026 59.1351 106.965 59.4219 106.848 59.688C106.731 59.9541 106.562 60.194 106.35 60.3934C107.416 60.1622 108.45 59.7996 109.427 59.3142C109.104 60.63 108.363 61.8073 107.314 62.6716C106.266 63.536 104.965 64.0415 103.605 64.1134" fill="#263238"/>
<path d="M107.484 61.9883C106.944 62.1389 106.392 62.2472 105.835 62.3123C105.286 62.4216 104.728 62.4856 104.168 62.5037C104.707 62.3525 105.258 62.2442 105.815 62.1796C106.365 62.0703 106.923 62.0063 107.484 61.9883Z" fill="#455A64"/>
<path d="M106.083 61.3604C106.083 61.3961 105.57 61.6155 104.959 61.9319C104.349 62.2482 103.864 62.5519 103.844 62.5187C104.152 62.2299 104.504 61.9922 104.888 61.8145C105.258 61.5989 105.662 61.4455 106.083 61.3604Z" fill="#455A64"/>
<path d="M108.244 64.6697C107.608 64.4546 106.955 64.2917 106.292 64.1824C105.624 64.1178 104.951 64.1059 104.281 64.1467C104.469 64.0795 104.666 64.0408 104.866 64.0319C105.346 63.9807 105.831 63.9876 106.31 64.0523C106.788 64.1141 107.257 64.2323 107.708 64.4044C107.899 64.464 108.08 64.5536 108.244 64.6697Z" fill="#263238"/>
<path d="M105.056 58.5742C105.069 58.7541 105.053 58.9348 105.01 59.11C104.931 59.535 104.804 59.95 104.633 60.3474C104.464 60.7461 104.25 61.1244 103.995 61.4752C103.898 61.6277 103.779 61.7645 103.641 61.8808C103.96 61.3693 104.25 60.8403 104.51 60.2964C104.727 59.7337 104.909 59.1586 105.056 58.5742Z" fill="#263238"/>
<path d="M105.42 66.1289C105.42 66.1289 103.725 62.5264 103.771 61.8885C103.817 61.2507 103.222 59.7479 103.222 59.7479L102.763 59.4264C102.763 59.4264 102.673 58.8345 101.801 58.4237C100.929 58.0129 99.6932 58.7886 99.6932 58.7886C99.6932 58.7886 98.457 58.4237 98.0903 59.5183C98.0903 59.5183 97.0824 59.6101 96.7618 60.202L94.71 61.7967V62.2176C94.71 62.2176 94.115 62.6641 94.197 62.9831L94.2868 63.302C94.2997 63.5343 94.2657 63.7668 94.1868 63.9858C94.0585 64.3047 95.7077 65.9452 96.0744 66.1289C96.4412 66.3126 96.5874 65.8074 96.5874 65.8074C97.559 67.0279 98.464 68.2995 99.2983 69.6167C99.7009 70.2928 101.442 72.1885 101.901 72.0992C102.361 72.0099 103.23 71.8696 103.23 71.8696L105.428 73.329L108.911 67.9506L105.42 66.1289Z" fill="#FFBE9C"/>
<path d="M96.4481 63.1182C96.3689 63.585 96.3379 64.0586 96.3557 64.5316C96.4198 65.0022 96.5333 65.4649 96.6943 65.9119C96.4272 65.5018 96.2643 65.0332 96.2196 64.5465C96.1749 64.0599 96.2498 63.5697 96.4378 63.1182H96.4481Z" fill="#FF996C"/>
<path d="M95.3848 63.1416C95.4259 63.1212 95.5516 63.4121 95.7773 63.6876C95.8769 63.7976 95.9994 63.8846 96.1363 63.9428C96.244 63.9887 96.321 63.9989 96.321 64.0193C96.321 64.0397 96.2415 64.0601 96.1081 64.0193C95.9393 63.9769 95.7884 63.8822 95.6772 63.7489C95.5663 63.6217 95.4794 63.4756 95.4208 63.3177C95.3848 63.2258 95.3695 63.1493 95.3848 63.1416Z" fill="#FF996C"/>
<path d="M95.4649 65.0445C95.4649 65.0062 95.7085 64.9425 95.9188 64.7281C96.1291 64.5138 96.1984 64.2689 96.2368 64.2765C96.2753 64.2842 96.2651 64.5751 96.0137 64.8225C95.7624 65.07 95.4623 65.0802 95.4649 65.0445Z" fill="#FF996C"/>
<path d="M97.8984 59.5468C98.0307 59.5062 98.1716 59.5017 98.3062 59.5341C98.6382 59.5919 98.9413 59.758 99.168 60.0061C99.3894 60.2464 99.5751 60.5171 99.7194 60.8098C99.7923 60.924 99.8443 61.0501 99.8733 61.1823C99.8553 61.1823 99.7707 61.0624 99.6373 60.8557C99.4735 60.5831 99.2837 60.3267 99.0705 60.0903C98.8589 59.8646 98.5865 59.7043 98.2857 59.6285C98.1549 59.61 98.0255 59.5827 97.8984 59.5468Z" fill="#FF996C"/>
<path d="M96.518 60.6943C96.2018 61.1646 95.8485 61.6091 95.4614 62.0236C95.1086 62.4669 94.7219 62.8823 94.3047 63.2661C94.6202 62.7954 94.9736 62.3508 95.3614 61.9369C95.7141 61.4936 96.1008 61.0782 96.518 60.6943Z" fill="#FF996C"/>
<path d="M100.444 59.5337C100.408 59.5516 100.272 59.3194 100.031 59.1051C99.7899 58.8908 99.5463 58.776 99.5591 58.7402C99.7727 58.7488 99.9744 58.8404 100.121 58.9954C100.385 59.2429 100.477 59.5235 100.444 59.5337Z" fill="#FF996C"/>
<path d="M103.074 60.9977C103.028 60.9977 102.989 60.4874 102.861 59.9083C102.761 59.5561 102.627 59.2143 102.461 58.8877C102.461 58.8877 102.569 58.9617 102.684 59.1428C102.829 59.3699 102.933 59.6202 102.992 59.8827C103.088 60.2461 103.116 60.6242 103.074 60.9977Z" fill="#FF996C"/>
<path d="M102.52 71.2344C102.788 71.3219 103.038 71.4586 103.256 71.6375C103.498 71.7808 103.712 71.9687 103.884 72.1911C103.631 72.0736 103.394 71.9244 103.179 71.7472C102.939 71.6031 102.718 71.4309 102.52 71.2344Z" fill="#FF996C"/>
<path d="M131.999 81.6675C130.75 79.5728 127.459 78.4859 123.548 76.0901C119.637 73.6944 108.901 67.9512 108.901 67.9512H106.616L105.418 73.3295C105.418 73.3295 111.435 79.0523 114.664 81.8027L119.762 86.1401L118.298 87.7628L125.6 96.7462L125.918 97.134C130.727 91.2174 130.642 90.7555 131.96 88.8497C133.171 87.0994 133.494 84.1781 131.999 81.6675Z" fill="#FFBE9C"/>
<path d="M99.8318 58.8627C100.088 58.9596 99.0444 56.9976 99.1111 56L98.2032 57.6099L97.6133 56.9083C97.7313 57.6916 97.821 58.4902 98.2904 59.128C98.2904 59.1382 98.7495 58.4774 99.8318 58.8627Z" fill="#263238"/>
<path d="M100.183 56.6865C100.222 56.7044 100.001 57.1458 99.9114 57.7351C99.8216 58.3245 99.8832 58.8118 99.8447 58.8169C99.7199 58.4628 99.6968 58.0812 99.778 57.7147C99.8156 57.3415 99.9558 56.9857 100.183 56.6865Z" fill="#263238"/>
<path d="M100.491 57.9726C100.522 57.9981 100.384 58.2124 100.235 58.4829C100.086 58.7533 99.9552 58.9753 99.9219 58.9626C99.9327 58.7645 100.001 58.5739 100.119 58.414C100.271 58.1359 100.466 57.9497 100.491 57.9726Z" fill="#263238"/>
<path d="M96.6992 58.2782C96.7326 58.2578 96.9736 58.5997 97.343 58.9467C97.7123 59.2937 98.0662 59.5233 98.0483 59.5565C97.7439 59.4564 97.4703 59.2808 97.2532 59.0462C97.0049 58.8422 96.814 58.5776 96.6992 58.2782Z" fill="#263238"/>
<path d="M97.5234 57.9033C97.653 58.1713 97.7519 58.4528 97.8184 58.7427C97.9277 59.0198 98.0051 59.3082 98.0492 59.6026C97.8799 59.3529 97.7582 59.0744 97.6901 58.781C97.5806 58.5012 97.524 58.2036 97.5234 57.9033Z" fill="#263238"/>
</g>
<path d="M131.796 27.1144L140.687 32.4834L140.035 33.562L131.145 28.193L131.796 27.1144ZM132.326 31.7032L136.995 34.5226L136.362 35.5704L131.493 32.63L132.326 31.7032ZM136.687 34.3365L136.903 34.4668L137.122 34.5569L137.685 35.1914C136.541 36.5052 135.366 37.5339 134.16 38.2775C132.96 39.0109 131.747 39.4982 130.522 39.7396C129.307 39.9873 128.093 40.0249 126.879 39.8527C126.888 39.6758 126.881 39.4545 126.86 39.189C126.848 38.9296 126.82 38.7093 126.775 38.5281C127.863 38.7226 128.967 38.7165 130.087 38.5098C131.218 38.3093 132.337 37.8844 133.444 37.2352C134.551 36.586 135.588 35.6916 136.557 34.5522L136.687 34.3365ZM132.184 32.8789C131.903 34.1109 131.786 35.3371 131.834 36.5576C131.899 37.7741 132.144 38.9458 132.571 40.0727C132.998 41.1997 133.634 42.2356 134.479 43.1806C134.354 43.2029 134.205 43.2395 134.034 43.2905C133.867 43.3579 133.706 43.4284 133.549 43.5021C133.393 43.5757 133.252 43.6453 133.129 43.7108C132.284 42.6958 131.656 41.5879 131.246 40.3869C130.836 39.1859 130.621 37.9279 130.602 36.6128C130.6 35.2936 130.764 33.9419 131.095 32.5579L132.184 32.8789ZM123.093 29.5128C123.609 29.6563 124.2 29.8165 124.864 29.9933C125.545 30.1661 126.257 30.3441 127.002 30.5273C127.763 30.7064 128.524 30.8856 129.284 31.0648L128.821 32.2149C127.752 31.9896 126.68 31.756 125.607 31.5142C124.543 31.2786 123.583 31.0701 122.725 30.8886L123.093 29.5128ZM126.457 24.395L131.388 27.3726L130.737 28.4511L125.806 25.4736L126.457 24.395ZM130.386 22.625L131.511 23.3043L123.778 36.1086C123.58 36.4373 123.387 36.6642 123.199 36.7892C123.011 36.9142 122.792 36.964 122.541 36.9386C122.286 36.8967 121.985 36.7919 121.638 36.6242C121.29 36.4565 120.863 36.2124 120.355 35.892C120.422 35.7358 120.481 35.5332 120.533 35.2844C120.585 35.0355 120.622 34.8123 120.643 34.6148C120.986 34.836 121.302 35.0334 121.589 35.2071C121.877 35.3808 122.072 35.4987 122.175 35.5607C122.284 35.6125 122.371 35.6302 122.437 35.6139C122.513 35.6039 122.582 35.5475 122.644 35.4448L130.386 22.625ZM135.467 25.7358L136.608 26.4243C136.002 27.4043 135.359 28.4108 134.679 29.4441C134.015 30.4732 133.301 31.4714 132.534 32.4385C131.784 33.4016 130.976 34.2873 130.11 35.0956C129.259 35.8999 128.342 36.5723 127.356 37.1128C126.388 37.6493 125.342 37.9992 124.22 38.1627C124.212 37.9898 124.168 37.7736 124.086 37.5141C124.009 37.271 123.926 37.0598 123.838 36.8805C124.898 36.7498 125.89 36.4305 126.813 35.9228C127.737 35.4151 128.598 34.7785 129.396 34.0132C130.212 33.2437 130.968 32.397 131.666 31.4729C132.381 30.5447 133.05 29.5886 133.672 28.6046C134.311 27.6166 134.909 26.6603 135.467 25.7358Z" fill="white"/>
<path d="M159.486 53.3621L160.179 54.5624L150.592 60.0974C150.312 60.2594 150.117 60.4136 150.007 60.5599C149.898 60.7063 149.871 60.888 149.927 61.1051C149.983 61.3221 150.116 61.6125 150.326 61.9762C150.386 62.0802 150.488 62.2568 150.632 62.5063C150.776 62.7557 150.941 63.0415 151.127 63.3636C151.319 63.6962 151.511 64.0287 151.703 64.3613C151.895 64.6938 152.069 64.9952 152.225 65.2654C152.381 65.5356 152.495 65.7331 152.567 65.8578C152.753 66.1799 152.948 66.386 153.152 66.4758C153.363 66.5761 153.647 66.5644 154.005 66.4408C154.369 66.3275 154.865 66.1177 155.491 65.8113C155.472 66.0168 155.478 66.2556 155.51 66.5279C155.549 66.8105 155.598 67.0521 155.659 67.2528C154.9 67.5941 154.265 67.8149 153.755 67.9154C153.261 68.0203 152.836 67.9679 152.479 67.7581C152.123 67.5484 151.776 67.1525 151.44 66.5705C151.386 66.477 151.281 66.2951 151.125 66.0249C150.975 65.7651 150.798 65.4586 150.594 65.1052C150.39 64.7519 150.186 64.3985 149.982 64.0452C149.778 63.6919 149.598 63.3801 149.442 63.1099C149.292 62.8501 149.193 62.6786 149.145 62.5955C148.779 61.9615 148.554 61.4267 148.468 60.991C148.389 60.5656 148.469 60.1872 148.707 59.8557C148.94 59.5406 149.343 59.2181 149.915 58.8881L159.486 53.3621ZM164.964 57.7025L164.614 59.2558C163.907 58.6799 163.168 58.0119 162.397 57.2518C161.642 56.4961 160.869 55.6742 160.08 54.7861C159.296 53.9085 158.521 52.998 157.754 52.0548C157.005 51.1159 156.277 50.1919 155.572 49.2826C155.664 49.2018 155.755 49.1077 155.845 49.0001C155.952 48.8969 156.053 48.7833 156.147 48.6594C156.258 48.5398 156.341 48.43 156.394 48.3301C157.076 49.2246 157.792 50.1278 158.54 51.0399C159.289 51.9519 160.037 52.829 160.787 53.6711C161.553 54.5176 162.287 55.2853 162.99 55.9743C163.698 56.6737 164.356 57.2498 164.964 57.7025ZM153.244 50.5433L161.809 61.5612L160.817 62.3627L152.212 51.3471L153.244 50.5433ZM149.396 52.121L158.936 64.6126L157.943 65.4141L148.363 52.9249L149.396 52.121Z" fill="white"/>
<path d="M167.984 88.4762L168.195 99.1841L167.025 99.2071L166.814 88.4992L167.984 88.4762ZM163.681 93.9259L163.78 98.9649L162.61 98.9879L162.511 93.9489L163.681 93.9259ZM158.258 87.3353L158.506 99.9329L157.318 99.9562L157.07 87.3587L158.258 87.3353ZM167.609 93.2185L167.635 94.5142L157.737 94.709L157.711 93.4132L167.609 93.2185ZM164.509 89.3727L164.534 90.6325L157.713 90.7667L157.688 89.5069L164.509 89.3727ZM171.065 86.7592L171.319 99.6807L170.078 99.7051L169.823 86.7836L171.065 86.7592ZM171.05 86.0034L171.076 87.2991L165.695 87.405C164.987 87.4189 164.23 87.3978 163.425 87.3416C162.62 87.2975 161.807 87.1814 160.988 86.9935C160.168 86.8176 159.37 86.5453 158.595 86.1765C157.832 85.8194 157.132 85.3351 156.496 84.7235C156.579 84.6618 156.679 84.5698 156.797 84.4475C156.914 84.3252 157.032 84.1968 157.149 84.0625C157.255 83.9404 157.331 83.8309 157.377 83.734C157.976 84.2983 158.621 84.7417 159.311 85.0641C160.014 85.3984 160.727 85.6424 161.45 85.7962C162.185 85.9498 162.913 86.0435 163.634 86.0773C164.355 86.1111 165.039 86.1216 165.687 86.1089L171.05 86.0034ZM173.229 91.5415L173.257 92.9453L170.378 93.0019L170.35 91.5982L173.229 91.5415ZM169.052 83.2881L169.54 84.2867C169.031 84.6208 168.467 84.932 167.848 85.2202C167.242 85.5082 166.711 85.7047 166.257 85.8096L165.678 84.7408C165.989 84.6627 166.335 84.5479 166.716 84.3963C167.097 84.2568 167.49 84.087 167.894 83.887C168.31 83.6988 168.696 83.4992 169.052 83.2881ZM162.478 83.1475C162.679 83.5756 162.929 84.0748 163.228 84.645C163.539 85.227 163.863 85.8267 164.199 86.4442L163.144 86.7711C162.821 86.2493 162.493 85.7157 162.158 85.1702C161.835 84.6364 161.531 84.1263 161.246 83.6398L162.478 83.1475Z" fill="white"/>
</svg>
