<svg width="375" height="329" viewBox="0 0 375 329" fill="none" xmlns="http://www.w3.org/2000/svg">
<path opacity="0.2" d="M308.24 41.0356C320.453 53.0399 314.39 73.5313 319.248 89.8821C328.291 120.383 371.1 127.807 386.603 155.68C394.785 170.386 393.671 189.166 385.649 203.886C377.655 218.615 363.462 229.428 347.774 235.551C337.398 239.6 324.457 243.71 322.304 254.558C321.554 258.424 322.434 262.402 322.686 266.355C323.845 284.017 311.555 300.493 295.85 308.8C280.145 317.108 261.681 318.573 243.863 317.969C228.2 317.439 212.617 315.465 197.312 312.081C188.903 310.203 180.364 307.891 171.777 308.594C163.19 309.298 155.129 313.023 146.612 314.44C126.274 317.842 106.259 308.028 88.0002 298.398C64.4902 286.031 41.0148 273.466 18.8406 258.865C10.5195 253.384 2.17612 247.416 -3.10539 239.028C-8.3869 230.64 -9.94807 219.208 -4.43448 211.049C0.207953 204.165 8.59209 201.025 15.8959 197.022C23.1998 193.019 30.5087 186.407 29.9746 178.131C29.3461 168.384 18.797 162.865 12.3508 155.446C5.49114 147.533 3.12434 136.527 3.85438 126.144C4.58443 115.761 8.14587 105.794 11.9462 96.1143C15.3011 87.5195 19.0277 78.8062 25.4636 72.1788C37.7494 59.5126 57.5963 57.0596 75.0721 60.1925C89.224 62.7488 96.231 64.4695 107.984 53.3395C122.245 39.8187 134.027 23.5072 150.18 12.2553C166.333 1.00349 189.221 -4.17589 205.691 6.84952C216.052 13.7774 221.919 25.7471 231.641 33.5164C242.728 42.3919 253.731 43.4685 266.075 38.7728C279.099 33.759 296.805 29.7961 308.24 41.0356Z" fill="#F6F6F6"/>
<path d="M39.5234 300.984V319.373H43.7693C43.7693 319.373 43.366 315.713 43.7693 313.541C44.1726 311.37 48.7851 305.781 48.6458 300.984H39.5234Z" fill="#9B4B03"/>
<path d="M73.4922 300.984V319.373H77.738C77.738 319.373 77.3347 315.713 77.738 313.541C78.1413 311.37 82.7538 305.781 82.6145 300.984H73.4922Z" fill="#9B4B03"/>
<path d="M106.727 300.984V319.373H102.481C102.481 319.373 102.884 315.713 102.481 313.541C102.078 311.37 97.4653 305.781 97.6047 300.984H106.727Z" fill="#9B4B03"/>
<path d="M136.125 300.984V319.373H131.88C131.88 319.373 132.283 315.713 131.88 313.541C131.476 311.37 126.864 305.781 127.003 300.984H136.125Z" fill="#9B4B03"/>
<path d="M138.357 210.21H36.6328V301.579H138.357V210.21Z" fill="#FFCB9D"/>
<path d="M110.953 210.21L111.708 301.579H138.357V210.21H110.953Z" fill="#FFDDBF"/>
<path d="M106.519 216.928H41.2109V240.179H106.519V216.928Z" fill="#9B4B03"/>
<path d="M106.519 244.814H41.2109V268.066H106.519V244.814Z" fill="#9B4B03"/>
<path d="M106.519 272.701H41.2109V295.952H106.519V272.701Z" fill="#9B4B03"/>
<path d="M66.2456 183.951L63.4297 210.099H99.523L102.515 183.951H66.2456Z" fill="#E0E0E0"/>
<path d="M67.7348 185.836L64.9922 208.713H97.5656L100.198 185.836H67.7348Z" fill="white"/>
<path d="M73.21 189.68L71.5234 204.863H92.078L93.134 189.68H73.21Z" fill="#9D9D9D"/>
<path d="M101.225 195.218L108.682 210.21L99.5234 210.1L101.225 195.218Z" fill="#EBEBEB"/>
<path d="M76.2499 229.771C76.2499 231.091 75.1793 232.162 73.8593 232.162C72.5394 232.162 71.4688 231.091 71.4688 229.771C71.4688 228.451 72.5394 227.38 73.8593 227.38C75.1793 227.38 76.2499 228.451 76.2499 229.771Z" fill="#E0E0E0"/>
<path d="M76.2499 257.929C76.2499 259.249 75.1793 260.32 73.8593 260.32C72.5394 260.32 71.4688 259.249 71.4688 257.929C71.4688 256.609 72.5394 255.538 73.8593 255.538C75.1793 255.545 76.2499 256.609 76.2499 257.929Z" fill="#E0E0E0"/>
<path d="M76.2499 286.094C76.2499 287.415 75.1793 288.485 73.8593 288.485C72.5394 288.485 71.4688 287.415 71.4688 286.094C71.4688 284.774 72.5394 283.703 73.8593 283.703C75.1793 283.703 76.2499 284.774 76.2499 286.094Z" fill="#E0E0E0"/>
<path d="M106.409 61.681L48.7344 61.1162L50.3476 136.304L108.015 136.517L106.409 61.681Z" fill="#FF7100"/>
<path d="M102.691 65.0326L52.2031 63.7197L53.6624 131.911L104.136 132.527L102.691 65.0326Z" fill="#FAFAFA"/>
<path d="M94.0755 75.2205L60.5781 74.6631L61.5974 122.324L95.0655 121.605L94.0755 75.2205Z" fill="#FFCBA2"/>
<path d="M61.5974 122.324L94.5448 97.122L60.5781 74.6631L61.5974 122.324Z" fill="#FF7100"/>
<path d="M297.918 270.479C297.706 271.124 305.252 299.817 305.252 299.817L310.429 298.739L303.308 270.479H297.918Z" fill="#199A8E"/>
<path d="M338.034 266.378L327.68 299.817H333.722L343.644 268.747L338.034 266.378Z" fill="#FF7100"/>
<path d="M347.529 261.2L335.664 299.818H341.706L353.139 263.569L347.529 261.2Z" fill="#FF0000"/>
<path d="M301.586 297.44L307.628 318.366H338.039L343.648 297.44H301.586Z" fill="#FFBE00"/>
<path d="M317.278 297.441C317.271 297.441 317.249 297.367 317.212 297.228C317.168 297.067 317.117 296.854 317.051 296.59C316.912 296.003 316.714 295.174 316.464 294.118C315.966 291.94 315.255 288.83 314.375 284.979C312.637 277.212 310.231 266.481 307.547 254.503L307.731 254.65C306.88 254.65 305.964 254.65 305.047 254.65C304.145 254.65 303.243 254.65 302.407 254.65L302.59 254.415C305.289 266.408 307.709 277.146 309.454 284.913C310.305 288.771 310.994 291.896 311.478 294.074C311.705 295.138 311.881 295.966 312.006 296.561C312.057 296.832 312.101 297.045 312.138 297.206C312.167 297.353 312.175 297.426 312.167 297.426C312.16 297.426 312.138 297.353 312.101 297.213C312.057 297.052 312.006 296.839 311.94 296.575C311.801 295.988 311.595 295.16 311.346 294.103C310.84 291.925 310.107 288.815 309.212 284.964C307.43 277.197 304.974 266.466 302.231 254.489L302.18 254.254H302.422C303.258 254.254 304.16 254.254 305.062 254.254C305.978 254.254 306.895 254.254 307.745 254.254H307.899L307.929 254.401C310.569 266.393 312.93 277.131 314.639 284.898C315.467 288.756 316.142 291.881 316.611 294.059C316.831 295.123 317.007 295.952 317.124 296.546C317.176 296.817 317.22 297.03 317.249 297.191C317.271 297.367 317.278 297.441 317.278 297.441Z" fill="#199A8E"/>
<path d="M346.988 319.247C346.988 319.35 277.368 319.438 191.505 319.438C105.605 319.438 36 319.35 36 319.247C36 319.145 105.605 319.057 191.505 319.057C277.368 319.057 346.988 319.137 346.988 319.247Z" fill="#263238"/>
<path d="M326.967 119.046C326.967 119.046 326.799 118.965 326.447 118.885C326.095 118.804 325.545 118.753 324.855 118.907C324.166 119.061 323.352 119.435 322.546 120.095C321.724 120.748 320.962 121.701 320.199 122.831C318.696 125.134 317.515 128.317 316.136 132.028C314.78 135.747 313.262 140.045 312.001 144.96L311.993 144.974L311.986 144.982C311.766 145.378 311.487 145.737 311.128 146.038C310.776 146.324 310.292 146.559 309.793 146.463C309.302 146.383 308.906 146.06 308.569 145.752C308.224 145.436 307.901 145.099 307.579 144.754C306.933 144.072 306.288 143.375 305.547 142.774C304.814 142.194 303.934 141.63 302.981 141.725C302.05 141.842 301.162 142.473 300.627 143.295C300.092 144.138 299.864 145.172 299.813 146.206C299.688 148.304 300.297 150.424 300.664 152.617C301.074 154.81 301.492 157.055 301.918 159.358C302.13 160.509 302.35 161.668 302.563 162.842C302.673 163.428 302.783 164.023 302.893 164.609C303.025 165.174 303.098 165.908 302.68 166.487C302.475 166.795 302.035 166.912 301.705 166.817C301.368 166.736 301.089 166.546 300.84 166.362C300.348 165.996 299.85 165.622 299.351 165.247C298.354 164.507 297.334 163.788 296.242 163.157C295.157 162.534 294.005 161.961 292.766 161.712C292.15 161.587 291.512 161.565 290.918 161.727C290.324 161.881 289.789 162.24 289.415 162.739C288.652 163.744 288.447 165.101 288.425 166.406C288.403 167.727 288.571 169.054 288.806 170.382C289.297 173.037 290.097 175.67 291.043 178.289C291.263 178.949 291.585 179.572 291.681 180.328C291.725 180.694 291.681 181.134 291.409 181.457C291.343 181.538 291.277 181.611 291.197 181.67C291.101 181.736 291.079 181.787 290.911 181.839C290.617 181.905 290.441 181.78 290.273 181.699C289.62 181.318 289.114 180.826 288.579 180.35C288.058 179.866 287.53 179.381 287.01 178.89C285.961 177.922 284.883 176.961 283.673 176.206C283.072 175.831 282.426 175.501 281.752 175.333C281.077 175.142 280.351 175.201 279.794 175.575C279.229 175.956 278.855 176.587 278.687 177.276C278.503 177.966 278.43 178.692 278.423 179.425C278.415 180.885 278.62 182.359 278.972 183.804C279.64 186.709 280.798 189.518 282.155 192.232C283.512 194.953 285.14 197.579 286.9 200.117C287.735 201.422 288.784 202.581 289.759 203.806C290.749 205.016 291.739 206.234 292.737 207.459L292.773 207.503L292.597 207.437C294.159 207.209 295.714 206.982 297.261 206.762C298.801 206.513 300.37 206.381 301.859 205.97C304.873 205.28 307.843 204.422 310.681 203.322C313.511 202.222 316.261 200.924 318.71 199.222C319.942 198.386 321.094 197.44 322.069 196.347C322.56 195.804 322.986 195.217 323.323 194.579C323.66 193.956 323.807 193.237 323.645 192.577C323.477 191.924 322.986 191.388 322.362 191.073C321.746 190.743 321.05 190.552 320.346 190.428C318.938 190.171 317.5 190.163 316.07 190.171C315.352 190.178 314.64 190.186 313.929 190.193C313.211 190.178 312.507 190.208 311.766 190.053C311.59 190.002 311.37 189.973 311.201 189.731C311.106 189.577 311.128 189.525 311.106 189.415C311.091 189.32 311.084 189.217 311.091 189.115C311.113 188.697 311.37 188.337 311.649 188.095C312.228 187.604 312.895 187.354 313.497 187.017C315.953 185.711 318.322 184.303 320.47 182.667C321.541 181.846 322.56 180.973 323.425 179.983C324.283 179.007 325.046 177.863 325.156 176.602C325.215 175.978 325.053 175.355 324.716 174.841C324.379 174.32 323.895 173.91 323.352 173.587C322.267 172.942 321.028 172.589 319.803 172.325C318.571 172.061 317.332 171.907 316.1 171.783C315.476 171.724 314.86 171.665 314.252 171.607C313.944 171.57 313.607 171.526 313.306 171.357C312.998 171.203 312.756 170.807 312.815 170.448C312.903 169.744 313.445 169.252 313.929 168.922C314.413 168.555 314.89 168.196 315.366 167.829C316.32 167.11 317.258 166.392 318.19 165.688C320.052 164.272 321.871 162.893 323.645 161.543C325.398 160.164 327.268 159.006 328.581 157.37C329.241 156.57 329.769 155.654 329.937 154.671C330.091 153.703 329.857 152.639 329.248 151.928C328.94 151.568 328.5 151.355 328.045 151.209C327.591 151.055 327.114 151.011 326.637 150.974C325.684 150.93 324.731 151.003 323.799 151.077C323.33 151.113 322.868 151.143 322.399 151.15C321.944 151.15 321.431 151.121 321.013 150.849C320.58 150.585 320.382 150.087 320.316 149.639C320.258 149.177 320.294 148.722 320.397 148.282V148.268L320.404 148.253C322.773 143.779 324.533 139.583 326.029 135.923C327.503 132.256 328.764 129.109 329.219 126.403C329.424 125.06 329.519 123.843 329.365 122.809C329.226 121.775 328.903 120.946 328.515 120.359C328.126 119.772 327.686 119.427 327.378 119.251C327.07 119.068 326.887 119.017 326.887 119.017C326.887 119.017 327.07 119.053 327.393 119.229C327.708 119.398 328.163 119.735 328.566 120.33C328.977 120.916 329.307 121.76 329.461 122.801C329.629 123.843 329.541 125.075 329.343 126.432C328.903 129.161 327.657 132.322 326.197 135.997C324.716 139.671 322.971 143.867 320.61 148.37L320.617 148.341C320.522 148.744 320.492 149.184 320.551 149.602C320.617 150.013 320.793 150.431 321.152 150.651C321.504 150.879 321.952 150.915 322.406 150.908C322.861 150.901 323.323 150.864 323.785 150.827C324.716 150.754 325.677 150.673 326.652 150.717C327.143 150.754 327.642 150.798 328.126 150.959C328.603 151.106 329.094 151.341 329.446 151.744C330.135 152.551 330.363 153.659 330.209 154.707C330.033 155.764 329.483 156.717 328.801 157.546C327.444 159.233 325.559 160.407 323.821 161.785C322.047 163.135 320.236 164.521 318.373 165.937C317.442 166.648 316.503 167.36 315.557 168.086C315.08 168.445 314.604 168.812 314.127 169.179C313.878 169.37 313.651 169.531 313.475 169.751C313.306 169.971 313.159 170.228 313.137 170.484C313.108 170.741 313.24 170.954 313.467 171.086C313.702 171.218 313.988 171.262 314.296 171.299C314.904 171.357 315.52 171.416 316.144 171.475C317.383 171.592 318.637 171.753 319.891 172.017C321.138 172.289 322.399 172.641 323.543 173.316C324.107 173.653 324.643 174.093 325.017 174.673C325.398 175.245 325.574 175.956 325.508 176.646C325.383 178.039 324.577 179.22 323.697 180.225C322.802 181.244 321.776 182.132 320.69 182.961C318.52 184.611 316.144 186.034 313.673 187.347C313.064 187.692 312.389 187.948 311.898 188.381C311.656 188.594 311.473 188.858 311.458 189.151C311.451 189.225 311.458 189.298 311.465 189.379C311.473 189.437 311.495 189.577 311.517 189.562C311.539 189.613 311.707 189.687 311.861 189.716C312.507 189.855 313.233 189.841 313.937 189.848C314.648 189.841 315.359 189.833 316.078 189.826C317.508 189.819 318.967 189.826 320.419 190.083C321.145 190.215 321.871 190.413 322.546 190.765C323.22 191.102 323.821 191.718 324.019 192.503C324.21 193.273 324.027 194.095 323.667 194.762C323.315 195.437 322.868 196.053 322.362 196.611C321.358 197.733 320.192 198.701 318.938 199.545C316.459 201.268 313.687 202.581 310.835 203.689C307.975 204.796 304.998 205.654 301.962 206.351C300.451 206.762 298.889 206.901 297.342 207.151C295.795 207.378 294.233 207.605 292.671 207.833L292.561 207.848L292.495 207.767L292.458 207.723C291.461 206.498 290.463 205.28 289.473 204.07C288.498 202.845 287.45 201.686 286.606 200.366C284.824 197.806 283.204 195.173 281.832 192.43C280.468 189.687 279.295 186.863 278.62 183.914C278.269 182.447 278.049 180.951 278.063 179.44C278.071 178.692 278.144 177.937 278.342 177.196C278.525 176.462 278.943 175.729 279.603 175.289C280.27 174.841 281.136 174.79 281.862 174.995C282.602 175.186 283.27 175.531 283.893 175.919C285.14 176.704 286.225 177.68 287.281 178.648C287.809 179.132 288.329 179.623 288.85 180.108C289.378 180.577 289.899 181.076 290.471 181.406C290.603 181.487 290.779 181.545 290.83 181.516C290.837 181.538 290.947 181.45 290.991 181.413C291.05 181.362 291.109 181.31 291.153 181.252C291.343 181.024 291.387 180.709 291.351 180.386C291.277 179.741 290.955 179.095 290.727 178.428C289.781 175.795 288.982 173.147 288.483 170.462C288.241 169.12 288.073 167.771 288.095 166.421C288.124 165.086 288.322 163.67 289.158 162.556C289.569 162.005 290.177 161.595 290.845 161.426C291.512 161.25 292.201 161.279 292.847 161.411C294.145 161.683 295.318 162.262 296.425 162.9C297.525 163.546 298.559 164.272 299.564 165.02C300.062 165.394 300.554 165.761 301.045 166.135C301.287 166.318 301.536 166.472 301.8 166.538C302.057 166.597 302.306 166.531 302.453 166.326C302.607 166.128 302.68 165.834 302.702 165.556C302.724 165.277 302.666 164.998 302.607 164.69C302.497 164.096 302.387 163.509 302.277 162.922C302.057 161.749 301.844 160.59 301.632 159.438C301.206 157.143 300.796 154.898 300.392 152.705C300.033 150.519 299.424 148.378 299.549 146.221C299.6 145.158 299.835 144.079 300.414 143.177C301.008 142.297 301.918 141.63 302.974 141.49C303.502 141.424 304.022 141.578 304.477 141.791C304.946 141.996 305.342 142.304 305.731 142.605C306.486 143.229 307.139 143.933 307.784 144.615C308.107 144.952 308.422 145.29 308.752 145.605C309.089 145.913 309.441 146.192 309.852 146.258C310.263 146.339 310.673 146.148 311.003 145.884C311.326 145.612 311.597 145.26 311.803 144.901L311.795 144.93C313.079 140.001 314.611 135.711 315.99 131.992C317.383 128.288 318.593 125.097 320.118 122.787C320.896 121.65 321.673 120.696 322.509 120.044C323.337 119.391 324.166 119.009 324.87 118.87C325.574 118.723 326.131 118.782 326.483 118.877C326.806 118.951 326.967 119.046 326.967 119.046Z" fill="#FF7100"/>
<path d="M323.122 129.029C323.129 129.029 323.1 129.109 323.048 129.271C322.982 129.447 322.902 129.674 322.799 129.96C322.557 130.584 322.22 131.471 321.794 132.601C320.907 134.911 319.631 138.212 318.062 142.29C314.938 150.498 310.634 161.808 305.882 174.299C301.145 186.812 296.811 198.115 293.591 206.271C291.986 210.349 290.673 213.642 289.749 215.916C289.287 217.031 288.928 217.904 288.678 218.527C288.561 218.806 288.466 219.033 288.392 219.202C288.326 219.356 288.29 219.429 288.282 219.429C288.275 219.429 288.304 219.349 288.356 219.187C288.422 219.011 288.502 218.784 288.605 218.498C288.847 217.874 289.184 216.987 289.61 215.865C290.497 213.554 291.773 210.254 293.342 206.175C296.466 197.968 300.771 186.658 305.522 174.167C310.26 161.661 314.593 150.351 317.805 142.195C319.411 138.116 320.724 134.823 321.648 132.549C322.11 131.435 322.469 130.554 322.718 129.938C322.836 129.66 322.931 129.432 323.004 129.263C323.078 129.102 323.114 129.021 323.122 129.029Z" fill="#FF7100"/>
<path d="M323.514 154.34C323.536 154.392 322.832 154.795 321.681 155.433C320.427 156.13 318.887 156.988 317.186 157.934C315.433 158.91 313.834 159.783 312.654 160.369C311.473 160.964 310.718 161.272 310.696 161.22C310.674 161.169 311.385 160.78 312.529 160.127C313.783 159.416 315.316 158.55 317.002 157.597C318.755 156.621 320.368 155.771 321.556 155.191C322.744 154.612 323.492 154.289 323.514 154.34Z" fill="#FF7100"/>
<path d="M310.103 160.773C310.008 160.817 308.263 157.495 306.21 153.336C304.156 149.185 302.565 145.781 302.66 145.73C302.756 145.686 304.501 149.009 306.554 153.167C308.607 157.326 310.199 160.729 310.103 160.773Z" fill="#FF7100"/>
<path d="M303.689 180.313C303.652 180.349 303.029 179.792 302.076 178.846C301.122 177.892 299.846 176.535 298.519 174.966C297.192 173.396 296.062 171.914 295.285 170.814C294.508 169.714 294.061 169.01 294.105 168.98C294.149 168.951 294.669 169.597 295.505 170.653C296.341 171.709 297.492 173.154 298.82 174.716C300.14 176.279 301.379 177.657 302.281 178.655C303.168 179.652 303.725 180.269 303.689 180.313Z" fill="#FF7100"/>
<path d="M317.108 177.159C317.123 177.211 316.382 177.423 315.172 177.724C313.962 178.025 312.298 178.421 310.45 178.824C308.602 179.235 306.923 179.587 305.698 179.822C304.473 180.057 303.718 180.174 303.703 180.123C303.689 180.071 304.429 179.859 305.639 179.558C306.842 179.257 308.514 178.861 310.369 178.45C312.217 178.04 313.896 177.688 315.121 177.453C316.338 177.225 317.094 177.108 317.108 177.159Z" fill="#FF7100"/>
<path d="M313.633 195.129C313.64 195.18 312.687 195.43 311.139 195.796C309.592 196.163 307.443 196.633 305.068 197.139C302.692 197.645 300.536 198.077 298.974 198.371C297.412 198.664 296.437 198.826 296.422 198.774C296.415 198.723 297.368 198.474 298.915 198.107C300.462 197.74 302.611 197.271 304.987 196.765C307.363 196.266 309.519 195.826 311.081 195.532C312.65 195.232 313.618 195.078 313.633 195.129Z" fill="#FF7100"/>
<path d="M296.811 198.562C296.789 198.577 296.599 198.4 296.261 198.063C295.924 197.726 295.448 197.22 294.876 196.596C293.724 195.335 292.177 193.56 290.549 191.521C288.921 189.489 287.52 187.582 286.545 186.188C286.054 185.491 285.673 184.912 285.416 184.509C285.159 184.105 285.027 183.878 285.049 183.863C285.071 183.848 285.247 184.046 285.541 184.428C285.885 184.875 286.289 185.411 286.765 186.034C287.799 187.391 289.222 189.261 290.85 191.293C292.47 193.325 293.988 195.122 295.081 196.427C296.173 197.718 296.848 198.525 296.811 198.562Z" fill="#FF7100"/>
<path d="M289.474 247.697C276.744 237.436 274.896 219.876 276.495 204.32C276.759 201.723 276.663 198.958 278.057 196.757C279.45 194.557 282.449 193.193 284.701 194.454C286.57 195.496 287.26 197.806 288.213 199.735C289.482 202.31 291.484 204.503 293.918 205.985C295.517 206.96 297.533 207.627 299.227 206.835C301.559 205.75 302.036 202.669 302.197 200.073C302.498 195.246 302.799 190.42 303.099 185.594C303.26 183.005 303.436 180.357 304.404 177.959C305.38 175.56 307.316 173.396 309.824 172.876C312.331 172.355 315.279 173.983 315.624 176.55C315.771 177.621 315.477 178.699 315.477 179.778C315.477 180.856 315.895 182.081 316.893 182.447C317.905 182.821 318.99 182.161 319.819 181.457C322.671 179.029 324.71 175.78 326.638 172.553C328.56 169.318 330.444 166.003 333.062 163.318C335.68 160.634 339.192 158.602 342.91 158.646C346.636 158.69 350.427 161.25 351.109 164.954C351.798 168.665 349.415 172.223 346.892 175.017C343.152 179.161 338.826 182.763 334.074 185.66C333.216 186.181 332.292 186.746 331.911 187.684C331.229 189.371 332.747 191.198 334.411 191.88C336.296 192.657 338.4 192.599 340.402 192.973C342.404 193.347 344.531 194.388 345.162 196.347C346.042 199.068 343.636 201.686 341.334 203.351C336.729 206.689 331.551 209.219 326.103 210.803C324.152 211.368 322.106 211.845 320.479 213.077C318.851 214.309 317.765 216.576 318.565 218.461C319.371 220.353 321.71 221.094 323.727 220.867C325.744 220.632 327.606 219.671 329.557 219.084C333.209 217.984 337.785 218.549 339.852 221.776C341.209 223.903 341.15 226.72 340.226 229.082C339.302 231.436 337.623 233.409 335.863 235.213C329.704 241.514 322.033 246.399 313.585 248.695C305.167 251.005 297.467 251.254 289.474 247.697Z" fill="#359A19"/>
<g opacity="0.1">
<path d="M289.474 247.697C276.744 237.436 274.896 219.876 276.495 204.32C276.759 201.723 276.663 198.958 278.057 196.757C279.45 194.557 282.449 193.193 284.701 194.454C286.57 195.496 287.26 197.806 288.213 199.735C289.482 202.31 291.484 204.503 293.918 205.985C295.517 206.96 297.533 207.627 299.227 206.835C301.559 205.75 302.036 202.669 302.197 200.073C302.498 195.246 302.799 190.42 303.099 185.594C303.26 183.005 303.436 180.357 304.404 177.959C305.38 175.56 307.316 173.396 309.824 172.876C312.331 172.355 315.279 173.983 315.624 176.55C315.771 177.621 315.477 178.699 315.477 179.778C315.477 180.856 315.895 182.081 316.893 182.447C317.905 182.821 318.99 182.161 319.819 181.457C322.671 179.029 324.71 175.78 326.638 172.553C328.56 169.318 330.444 166.003 333.062 163.318C335.68 160.634 339.192 158.602 342.91 158.646C346.636 158.69 350.427 161.25 351.109 164.954C351.798 168.665 349.415 172.223 346.892 175.017C343.152 179.161 338.826 182.763 334.074 185.66C333.216 186.181 332.292 186.746 331.911 187.684C331.229 189.371 332.747 191.198 334.411 191.88C336.296 192.657 338.4 192.599 340.402 192.973C342.404 193.347 344.531 194.388 345.162 196.347C346.042 199.068 343.636 201.686 341.334 203.351C336.729 206.689 331.551 209.219 326.103 210.803C324.152 211.368 322.106 211.845 320.479 213.077C318.851 214.309 317.765 216.576 318.565 218.461C319.371 220.353 321.71 221.094 323.727 220.867C325.744 220.632 327.606 219.671 329.557 219.084C333.209 217.984 337.785 218.549 339.852 221.776C341.209 223.903 341.15 226.72 340.226 229.082C339.302 231.436 337.623 233.409 335.863 235.213C329.704 241.514 322.033 246.399 313.585 248.695C305.167 251.005 297.467 251.254 289.474 247.697Z" fill="black"/>
</g>
<path d="M288.477 259.242C289.467 253.103 291.322 245.9 294.167 238.199C297.005 230.49 300.811 222.29 305.086 213.855C306.164 211.75 307.227 209.667 308.276 207.62C309.324 205.574 310.373 203.55 311.51 201.628C313.776 197.777 316.254 194.249 318.703 190.978C321.153 187.699 323.602 184.677 325.912 181.868C328.229 179.066 330.436 176.492 332.548 174.233C336.757 169.7 340.585 166.451 343.299 164.323C344.655 163.26 345.733 162.46 346.474 161.94C346.826 161.69 347.104 161.492 347.317 161.346C347.508 161.214 347.61 161.148 347.61 161.155C347.618 161.162 347.522 161.236 347.339 161.382C347.134 161.536 346.87 161.749 346.525 162.013C345.806 162.563 344.743 163.385 343.409 164.47C340.732 166.634 336.955 169.913 332.79 174.467C330.7 176.734 328.515 179.316 326.212 182.125C323.917 184.941 321.49 187.971 319.048 191.242C316.614 194.513 314.157 198.034 311.906 201.87C310.769 203.777 309.742 205.794 308.686 207.84C307.638 209.887 306.575 211.97 305.497 214.075C301.221 222.502 297.416 230.673 294.563 238.353C291.703 246.025 289.819 253.191 288.792 259.301" fill="#263238"/>
<path d="M311.655 201.62C311.625 201.62 311.559 201.224 311.479 200.498C311.391 199.772 311.303 198.723 311.207 197.417C311.017 194.813 310.877 191.212 310.745 187.236C310.606 183.261 310.415 179.667 310.188 177.078C310.078 175.78 309.975 174.731 309.902 174.012C309.829 173.286 309.799 172.882 309.836 172.875C309.865 172.868 309.953 173.264 310.085 173.983C310.217 174.701 310.371 175.743 310.525 177.041C310.841 179.638 311.083 183.239 311.222 187.214C311.347 191.139 311.464 194.681 311.552 197.395C311.596 198.62 311.64 199.654 311.669 200.476C311.684 201.209 311.684 201.613 311.655 201.62Z" fill="#263238"/>
<path d="M345.359 197.682C345.359 197.711 344.882 197.74 344.017 197.748C343.159 197.762 341.912 197.784 340.379 197.858C337.307 197.975 333.076 198.291 328.412 198.841C323.755 199.398 319.561 200.088 316.54 200.667C315.029 200.946 313.812 201.21 312.968 201.386C312.125 201.562 311.656 201.65 311.649 201.613C311.641 201.584 312.096 201.437 312.924 201.202C313.753 200.975 314.963 200.66 316.474 200.337C319.488 199.669 323.682 198.921 328.361 198.364C333.032 197.814 337.285 197.55 340.372 197.52C341.912 197.491 343.159 197.528 344.024 197.564C344.882 197.608 345.359 197.645 345.359 197.682Z" fill="#263238"/>
<path d="M294.622 237.612C294.608 237.619 294.542 237.472 294.424 237.194C294.292 236.856 294.131 236.445 293.94 235.954C293.522 234.876 292.958 233.291 292.29 231.333C290.948 227.409 289.262 221.93 287.48 215.864C285.698 209.791 284.07 204.305 282.809 200.359C282.193 198.437 281.679 196.86 281.306 195.686C281.144 195.18 281.012 194.755 280.902 194.41C280.814 194.117 280.778 193.963 280.792 193.955C280.807 193.948 280.873 194.095 280.99 194.381C281.122 194.718 281.284 195.129 281.474 195.62C281.892 196.699 282.457 198.283 283.124 200.241C284.466 204.165 286.153 209.644 287.935 215.717C289.717 221.791 291.344 227.27 292.606 231.216C293.222 233.13 293.735 234.714 294.109 235.881C294.27 236.387 294.402 236.812 294.512 237.157C294.6 237.45 294.637 237.604 294.622 237.612Z" fill="#263238"/>
<path d="M339.826 226.39C339.826 226.405 339.672 226.456 339.371 226.544C339.019 226.64 338.587 226.75 338.059 226.889C336.849 227.19 335.206 227.6 333.219 228.099C329.134 229.119 323.503 230.6 317.284 232.243C311.066 233.886 305.419 235.309 301.305 236.248C299.252 236.717 297.588 237.084 296.429 237.312C295.894 237.414 295.454 237.495 295.094 237.568C294.786 237.62 294.625 237.642 294.625 237.627C294.625 237.612 294.779 237.561 295.08 237.473C295.432 237.385 295.864 237.268 296.392 237.128C297.602 236.828 299.238 236.417 301.232 235.918C305.317 234.898 310.948 233.417 317.167 231.774C323.385 230.131 329.032 228.708 333.138 227.769C335.191 227.3 336.856 226.933 338.015 226.706C338.55 226.603 338.99 226.522 339.349 226.449C339.657 226.398 339.819 226.376 339.826 226.39Z" fill="#263238"/>
<path d="M292.436 45.2217H114.602V288.955H292.436V45.2217Z" fill="#455A64"/>
<path d="M285.41 274.461H252.47H129.414V55.0723H285.41V247.169V274.461Z" fill="#E0E0E0"/>
<path d="M282.94 270.391H250.3H128.352V52.168H282.94V243.245V270.391Z" fill="#EBEBEB"/>
<path d="M266.329 253.404L248.525 267.912H125.469V52.7256H281.465V241.14L266.329 253.404Z" fill="#FAFAFA"/>
<path d="M266.333 253.403C266.333 253.403 266.648 253.132 267.286 252.611C267.924 252.09 268.878 251.313 270.139 250.279C272.676 248.218 276.445 245.145 281.432 241.088L281.41 241.132C281.388 210.18 281.351 141.41 281.3 52.718L281.476 52.8941C235.021 52.9014 182.392 52.9088 126.844 52.9161C126.382 52.9161 125.927 52.9161 125.48 52.9161L125.67 52.7254C125.656 133.627 125.641 208.258 125.634 267.911L125.48 267.757C181.651 267.794 224.806 267.831 248.536 267.845L248.492 267.86C254.432 263.041 258.89 259.425 261.86 257.012C263.349 255.809 264.463 254.907 265.211 254.306C265.959 253.704 266.333 253.403 266.333 253.403C266.333 253.403 265.966 253.711 265.233 254.32C264.493 254.929 263.378 255.839 261.904 257.056C258.934 259.484 254.49 263.115 248.572 267.956L248.558 267.97H248.536C224.806 267.985 181.651 268.022 125.48 268.058H125.326V267.904C125.318 208.251 125.304 133.62 125.289 52.718V52.5273H125.48C125.927 52.5273 126.382 52.5273 126.844 52.5273C182.392 52.5347 235.021 52.542 281.476 52.5493H281.652V52.7254C281.601 141.417 281.557 210.187 281.542 241.14V241.169L281.52 241.184C276.526 245.218 272.735 248.276 270.19 250.33C268.922 251.35 267.961 252.12 267.316 252.641C266.663 253.154 266.333 253.403 266.333 253.403Z" fill="#263238"/>
<path d="M235.443 59.5758H171.602V48.5077C171.602 42.5299 176.449 37.6816 182.425 37.6816H225.067C230.801 37.6816 235.443 42.3319 235.443 48.0603V59.5758Z" fill="url(#paint0_linear_1555_6855)"/>
<path d="M187.238 37.682L184.906 25.873H221.667L219.621 37.682H187.238Z" fill="#1ABFAF"/>
<path d="M168.071 113.295H141.789V87.0078H168.071V113.295ZM142.522 112.562H167.337V87.7413H142.522V112.562Z" fill="#1D968B" fill-opacity="0.9"/>
<path d="M168.071 153.805H141.789V127.518H168.071V153.805ZM142.522 153.072H167.337V128.251H142.522V153.072Z" fill="#33A096"/>
<path d="M147.008 141.204L150.498 137.456L156.313 142.106L169.623 129.183L172.813 132.938L156.057 149.478L147.008 141.204Z" fill="#33A096"/>
<path d="M253.931 135.353C253.931 135.455 240.288 135.544 223.468 135.544C206.637 135.544 193 135.455 193 135.353C193 135.25 206.637 135.162 223.468 135.162C240.288 135.162 253.931 135.25 253.931 135.353Z" fill="#263238"/>
<path d="M253.931 140.817C253.931 140.919 240.288 141.007 223.468 141.007C206.637 141.007 193 140.919 193 140.817C193 140.714 206.637 140.626 223.468 140.626C240.288 140.626 253.931 140.714 253.931 140.817Z" fill="#263238"/>
<path d="M253.931 146.282C253.931 146.384 237.153 146.472 216.469 146.472C195.771 146.472 179 146.384 179 146.282C179 146.179 195.771 146.091 216.469 146.091C237.153 146.091 253.931 146.172 253.931 146.282Z" fill="#263238"/>
<path d="M253.931 151.739C253.931 151.841 237.153 151.929 216.469 151.929C195.771 151.929 179 151.841 179 151.739C179 151.636 195.771 151.548 216.469 151.548C237.153 151.548 253.931 151.636 253.931 151.739Z" fill="#263238"/>
<path fill-rule="evenodd" clip-rule="evenodd" d="M179 134H188V143H179V134ZM182.214 139.143L183.5 140.429L186.714 137.214V141.714H180.286V141.071L182.214 139.143ZM182.536 137.857C183.068 137.857 183.5 137.425 183.5 136.893C183.5 136.36 183.068 135.929 182.536 135.929C182.003 135.929 181.571 136.36 181.571 136.893C181.571 137.425 182.003 137.857 182.536 137.857Z" fill="#199A8E"/>
<path d="M168.071 193.009H141.789V166.722H168.071V193.009ZM142.522 192.276H167.337V167.455H142.522V192.276Z" fill="#33A096"/>
<path d="M147.008 180.408L150.498 176.66L156.313 181.31L169.623 168.387L172.813 172.142L156.057 188.675L147.008 180.408Z" fill="#33A096"/>
<path d="M253.931 174.353C253.931 174.455 240.288 174.544 223.468 174.544C206.637 174.544 193 174.455 193 174.353C193 174.25 206.637 174.162 223.468 174.162C240.288 174.162 253.931 174.25 253.931 174.353Z" fill="#263238"/>
<path d="M253.931 179.817C253.931 179.919 240.288 180.007 223.468 180.007C206.637 180.007 193 179.919 193 179.817C193 179.714 206.637 179.626 223.468 179.626C240.288 179.626 253.931 179.714 253.931 179.817Z" fill="#263238"/>
<path d="M253.931 185.282C253.931 185.384 237.153 185.472 216.469 185.472C195.771 185.472 179 185.384 179 185.282C179 185.179 195.771 185.091 216.469 185.091C237.153 185.091 253.931 185.172 253.931 185.282Z" fill="#263238"/>
<path d="M253.931 190.739C253.931 190.841 237.153 190.929 216.469 190.929C195.771 190.929 179 190.841 179 190.739C179 190.636 195.771 190.548 216.469 190.548C237.153 190.548 253.931 190.636 253.931 190.739Z" fill="#263238"/>
<path fill-rule="evenodd" clip-rule="evenodd" d="M179 173H188V182H179V173ZM182.214 178.143L183.5 179.429L186.714 176.214V180.714H180.286V180.071L182.214 178.143ZM182.536 176.857C183.068 176.857 183.5 176.425 183.5 175.893C183.5 175.36 183.068 174.929 182.536 174.929C182.003 174.929 181.571 175.36 181.571 175.893C181.571 176.425 182.003 176.857 182.536 176.857Z" fill="#199A8E"/>
<path d="M168.071 230.857H141.789V204.569H168.071V230.857ZM142.522 230.124H167.337V205.303H142.522V230.124Z" fill="#33A096"/>
<path d="M147.008 218.256L150.498 214.508L156.313 219.165L169.623 206.234L172.813 209.997L156.057 226.53L147.008 218.256Z" fill="#33A096"/>
<path d="M253.931 212.353C253.931 212.455 240.288 212.544 223.468 212.544C206.637 212.544 193 212.455 193 212.353C193 212.25 206.637 212.162 223.468 212.162C240.288 212.162 253.931 212.25 253.931 212.353Z" fill="#263238"/>
<path d="M253.931 217.817C253.931 217.919 240.288 218.007 223.468 218.007C206.637 218.007 193 217.919 193 217.817C193 217.714 206.637 217.626 223.468 217.626C240.288 217.626 253.931 217.714 253.931 217.817Z" fill="#263238"/>
<path d="M253.931 223.282C253.931 223.384 237.153 223.472 216.469 223.472C195.771 223.472 179 223.384 179 223.282C179 223.179 195.771 223.091 216.469 223.091C237.153 223.091 253.931 223.172 253.931 223.282Z" fill="#263238"/>
<path d="M253.931 228.739C253.931 228.841 237.153 228.929 216.469 228.929C195.771 228.929 179 228.841 179 228.739C179 228.636 195.771 228.548 216.469 228.548C237.153 228.548 253.931 228.636 253.931 228.739Z" fill="#263238"/>
<path fill-rule="evenodd" clip-rule="evenodd" d="M179 211H188V220H179V211ZM182.214 216.143L183.5 217.429L186.714 214.214V218.714H180.286V218.071L182.214 216.143ZM182.536 214.857C183.068 214.857 183.5 214.425 183.5 213.893C183.5 213.36 183.068 212.929 182.536 212.929C182.003 212.929 181.571 213.36 181.571 213.893C181.571 214.425 182.003 214.857 182.536 214.857Z" fill="#199A8E"/>
<path d="M253.413 232.279L236.312 267.706H248.522L253.413 232.279Z" fill="#E0E0E0"/>
<path d="M248.523 267.912L253.415 232.478L281.464 241.14L248.523 267.912Z" fill="#FAFAFA"/>
<path d="M248.523 267.911C249.213 267.347 252.241 264.853 257.954 260.144C263.813 255.347 271.989 248.65 281.339 240.993L281.405 241.316C277.929 240.245 274.299 239.123 270.574 237.978C264.502 236.101 258.68 234.296 253.356 232.653L253.591 232.507C252.124 242.797 250.87 251.614 249.975 257.878C249.095 263.973 248.641 267.112 248.523 267.911C248.523 267.919 248.523 267.86 248.538 267.757C248.553 267.633 248.575 267.471 248.597 267.266C248.655 266.804 248.743 266.166 248.846 265.337C249.073 263.613 249.396 261.141 249.807 258.032C250.65 251.716 251.838 242.834 253.224 232.463L253.253 232.25L253.459 232.316C258.782 233.959 264.605 235.749 270.677 237.619C274.394 238.771 278.024 239.893 281.5 240.964L281.838 241.066L281.566 241.286C272.107 248.922 263.828 255.596 257.895 260.386C254.969 262.74 252.615 264.625 250.98 265.938C250.188 266.569 249.572 267.068 249.139 267.42C248.941 267.574 248.787 267.699 248.67 267.794C248.575 267.875 248.523 267.911 248.523 267.911Z" fill="#263238"/>
<g opacity="0.3">
<path d="M219.118 25.873L217.094 37.682H219.616L221.662 25.873H218.443" fill="black"/>
</g>
<path d="M260.931 93.3528C260.931 93.4555 247.288 93.5435 230.468 93.5435C213.637 93.5435 200 93.4555 200 93.3528C200 93.2501 213.637 93.1621 230.468 93.1621C247.288 93.1621 260.931 93.2501 260.931 93.3528Z" fill="#263238"/>
<path d="M260.931 98.8167C260.931 98.9194 247.288 99.0074 230.468 99.0074C213.637 99.0074 200 98.9194 200 98.8167C200 98.714 213.637 98.626 230.468 98.626C247.288 98.626 260.931 98.714 260.931 98.8167Z" fill="#263238"/>
<path d="M260.931 104.282C260.931 104.384 244.153 104.472 223.469 104.472C202.771 104.472 186 104.384 186 104.282C186 104.179 202.771 104.091 223.469 104.091C244.153 104.091 260.931 104.172 260.931 104.282Z" fill="#263238"/>
<path d="M260.931 109.739C260.931 109.841 244.153 109.929 223.469 109.929C202.771 109.929 186 109.841 186 109.739C186 109.636 202.771 109.548 223.469 109.548C244.153 109.548 260.931 109.636 260.931 109.739Z" fill="#263238"/>
<path fill-rule="evenodd" clip-rule="evenodd" d="M186 92H195V101H186V92ZM189.214 97.1429L190.5 98.4286L193.714 95.2143V99.7143H187.286V99.0714L189.214 97.1429ZM189.536 95.8571C190.068 95.8571 190.5 95.4254 190.5 94.8929C190.5 94.3603 190.068 93.9286 189.536 93.9286C189.003 93.9286 188.571 94.3603 188.571 94.8929C188.571 95.4254 189.003 95.8571 189.536 95.8571Z" fill="#199A8E"/>
<path d="M111.449 150.424C115.182 150.71 118.401 147.834 118.547 144.094C118.687 140.5 118.804 136.869 118.804 136.869C118.804 136.869 124.245 136.356 124.641 130.972C125.037 125.588 124.854 113.149 124.854 113.149C118.782 110.09 111.522 110.552 105.891 114.366L106.228 133.326V143.522C106.257 146.954 108.039 150.16 111.449 150.424Z" fill="#FFBE9D"/>
<path d="M119.272 124.4C118.341 123.248 116.83 122.793 115.591 123.593C114.352 124.4 113.875 126.189 114.55 127.51C115.026 128.441 116.112 129.277 117.19 129.505C118.209 129.717 118.927 130.7 118.81 131.734C118.656 133.084 117.937 134.368 116.918 135.483C115.342 137.221 113.017 138.16 110.685 138.438C108.39 138.71 105.765 138.233 104.43 136.348C103.462 134.976 103.389 133.179 103.352 131.5C103.271 127.532 103.191 123.556 103.103 119.588C103.073 118.158 103.044 116.706 103.374 115.312C103.704 113.918 104.43 112.562 105.625 111.777C106.938 110.911 108.595 110.838 110.084 110.361C111.946 109.76 113.53 108.52 115.276 107.625C117.021 106.73 119.162 106.202 120.915 107.075C122.169 107.706 123.012 108.96 124.237 109.657C125.975 110.647 128.35 110.42 129.194 112.98C129.487 113.867 129.465 114.835 129.164 115.715C127.984 119.199 123.672 120.608 120.563 119.097C120.504 119.684 121.083 121.004 120.46 122.867C120.269 123.476 120.203 124.385 119.272 124.4Z" fill="#263238"/>
<path d="M104.409 113.317C105.171 111.579 105.949 109.796 106.139 107.904C106.33 106.012 105.853 103.951 104.445 102.674C103.492 101.809 102.179 101.383 100.896 101.42C98.4322 101.494 96.1589 103.342 95.4843 105.711C94.8096 108.08 95.7409 110.794 97.6622 112.334C99.5834 113.875 102.37 114.205 104.636 113.244" fill="#263238"/>
<path d="M105.467 111.351C105.569 111.351 105.481 112.312 104.675 113.09C103.875 113.882 102.915 113.948 102.915 113.845C102.885 113.735 103.707 113.522 104.403 112.818C105.129 112.129 105.364 111.322 105.467 111.351Z" fill="#E8505B"/>
<path d="M103.703 112.664C103.725 112.694 103.227 113.178 102.244 113.735C101.753 113.999 101.093 114.27 100.315 114.278C99.5601 114.292 98.6215 114.043 98.0642 113.273C97.5142 112.51 97.4922 111.571 97.6682 110.838C97.8515 110.082 98.2329 109.503 98.5775 109.055C99.2888 108.175 99.8241 107.743 99.8535 107.772C99.9048 107.816 99.4282 108.322 98.7975 109.217C98.4969 109.664 98.1595 110.236 98.0202 110.919C97.8809 111.593 97.9249 112.422 98.3795 113.053C98.8342 113.691 99.6335 113.933 100.315 113.933C101.012 113.94 101.628 113.72 102.119 113.5C103.102 113.024 103.667 112.613 103.703 112.664Z" fill="#263238"/>
<path d="M94.548 118.752C94.5773 118.745 94.658 118.958 94.812 119.346C94.966 119.728 95.1713 120.307 95.6039 120.879C96.0219 121.429 96.7992 122.024 97.7159 121.848C98.6178 121.679 99.4171 120.843 99.7471 119.801C100.099 118.752 100.121 117.659 100.297 116.669C100.458 115.686 100.788 114.784 101.324 114.205C101.844 113.618 102.468 113.361 102.893 113.31C103.326 113.251 103.56 113.354 103.553 113.369C103.553 113.405 103.318 113.361 102.922 113.457C102.534 113.552 101.984 113.823 101.529 114.381C101.067 114.931 100.781 115.767 100.642 116.728C100.488 117.689 100.48 118.796 100.106 119.926C99.7545 121.048 98.8525 122.009 97.7745 122.192C97.2392 122.288 96.7112 122.148 96.3153 121.906C95.9119 121.664 95.6113 121.349 95.384 121.033C94.944 120.388 94.7826 119.787 94.6653 119.383C94.5627 118.987 94.5187 118.76 94.548 118.752Z" fill="#263238"/>
<path d="M91.8986 164C91.8986 164 89.156 184.112 91.8986 186.664C94.6412 189.217 97.2884 188.366 97.2884 188.366L102.517 183.994L103.543 164H91.8986Z" fill="#FFBE9D"/>
<path d="M148.688 107.545L152.178 103.797L157.993 108.447L171.303 95.5234L174.493 99.2788L157.737 115.811L148.688 107.545Z" fill="#33A096"/>
<path d="M165.086 108.564L160.026 111.814C159.799 109.811 158.274 107.831 158.347 108.836C158.428 109.841 158.354 115.056 158.354 115.056L149.327 134.045C148.103 137.053 145.617 138.945 143.762 139.392L135.336 141.901L138.628 153.042L150.332 149.162C153.368 148.157 155.751 145.766 156.748 142.722L164.815 118.136C164.815 118.136 165.775 115.342 166.12 113.288C166.479 111.227 165.086 108.564 165.086 108.564Z" fill="#FFBE9D"/>
<path d="M123.638 316.262L123.514 310.629L112.969 310.798L113.064 319.034L113.717 319.064C116.628 319.181 128.537 319.445 130.473 318.822C132.629 318.14 123.638 316.262 123.638 316.262Z" fill="#E8505B"/>
<g opacity="0.5">
<path d="M116.888 318.895C116.727 318.015 116.221 317.208 115.51 316.665C114.799 316.123 113.919 315.851 113.031 315.939L113.075 318.888L116.888 318.895Z" fill="white"/>
</g>
<g opacity="0.4">
<path d="M128.029 317.333C128.029 317.333 131.182 318.191 130.801 318.712C130.419 319.233 118.371 319.423 113.055 319.035L113.069 318.8L127.119 318.705C127.119 318.712 127.42 317.37 128.029 317.333Z" fill="white"/>
</g>
<path d="M112.906 318.8C112.906 318.807 112.972 318.807 113.09 318.814C113.244 318.822 113.42 318.829 113.61 318.837C114.131 318.851 114.769 318.866 115.531 318.888C117.152 318.925 119.389 318.939 121.86 318.903C124.331 318.866 126.568 318.785 128.188 318.704C128.944 318.66 129.582 318.624 130.102 318.594C130.293 318.58 130.469 318.565 130.623 318.558C130.74 318.55 130.806 318.543 130.806 318.536C130.806 318.528 130.74 318.528 130.623 318.536C130.469 318.543 130.293 318.543 130.102 318.55C129.582 318.572 128.944 318.594 128.188 318.616C126.568 318.675 124.331 318.741 121.86 318.778C119.389 318.814 117.152 318.814 115.531 318.8C114.776 318.792 114.131 318.792 113.61 318.785C113.42 318.785 113.244 318.785 113.09 318.785C112.965 318.792 112.906 318.8 112.906 318.8Z" fill="#263238"/>
<path d="M127.121 318.873C127.157 318.88 127.179 318.418 127.465 317.949C127.737 317.479 128.133 317.237 128.111 317.208C128.103 317.178 127.656 317.384 127.355 317.89C127.055 318.389 127.091 318.88 127.121 318.873Z" fill="#263238"/>
<path d="M123.982 317.34C124.011 317.362 124.158 317.172 124.305 316.93C124.451 316.688 124.554 316.475 124.524 316.453C124.495 316.431 124.349 316.614 124.202 316.864C124.048 317.113 123.953 317.326 123.982 317.34Z" fill="#263238"/>
<path d="M123.12 316.9C123.142 316.929 123.31 316.812 123.486 316.643C123.662 316.474 123.794 316.32 123.765 316.298C123.743 316.269 123.574 316.386 123.398 316.555C123.222 316.724 123.098 316.878 123.12 316.9Z" fill="#263238"/>
<path d="M122.562 315.917C122.562 315.953 122.812 315.983 123.112 315.975C123.42 315.975 123.662 315.946 123.662 315.909C123.662 315.873 123.413 315.843 123.112 315.851C122.812 315.851 122.562 315.88 122.562 315.917Z" fill="#263238"/>
<path d="M122.368 315.213C122.353 315.242 122.624 315.36 122.984 315.382C123.343 315.404 123.622 315.323 123.614 315.286C123.607 315.25 123.328 315.272 122.991 315.25C122.654 315.235 122.382 315.184 122.368 315.213Z" fill="#263238"/>
<path d="M124.32 316.416C124.32 316.431 124.577 316.46 124.995 316.402C125.2 316.372 125.45 316.321 125.714 316.233C125.846 316.181 125.985 316.145 126.124 316.057C126.19 316.013 126.264 315.947 126.286 315.844C126.315 315.741 126.256 315.631 126.176 315.573C125.523 315.25 124.878 315.624 124.643 315.961C124.511 316.137 124.452 316.299 124.43 316.416C124.408 316.534 124.408 316.6 124.416 316.6C124.438 316.607 124.46 316.335 124.716 316.02C124.841 315.866 125.039 315.712 125.288 315.631C125.523 315.558 125.868 315.529 126.095 315.675C126.205 315.756 126.161 315.881 126.044 315.954C125.934 316.027 125.787 316.071 125.662 316.123C125.406 316.218 125.171 316.277 124.966 316.313C124.577 316.387 124.32 316.394 124.32 316.416Z" fill="#263238"/>
<path d="M124.5 316.445C124.507 316.453 124.61 316.277 124.573 315.976C124.551 315.829 124.5 315.653 124.383 315.485C124.258 315.338 124.104 315.133 123.811 315.147C123.657 315.169 123.583 315.353 123.605 315.463C123.62 315.58 123.671 315.683 123.723 315.763C123.825 315.932 123.943 316.064 124.053 316.167C124.265 316.372 124.434 316.445 124.441 316.438C124.456 316.423 124.302 316.321 124.111 316.108C124.016 316.005 123.913 315.866 123.818 315.705C123.723 315.565 123.657 315.309 123.825 315.272C123.994 315.25 124.17 315.419 124.273 315.551C124.383 315.697 124.441 315.851 124.471 315.991C124.537 316.262 124.478 316.438 124.5 316.445Z" fill="#263238"/>
<path d="M113.078 315.91C113.078 315.932 113.379 315.873 113.855 315.924C114.325 315.968 114.985 316.152 115.564 316.599C116.143 317.047 116.488 317.641 116.649 318.088C116.818 318.536 116.84 318.844 116.862 318.836C116.869 318.836 116.869 318.763 116.862 318.624C116.847 318.484 116.811 318.294 116.737 318.059C116.591 317.589 116.246 316.966 115.645 316.504C115.043 316.042 114.354 315.866 113.863 315.844C113.621 315.829 113.415 315.844 113.283 315.866C113.151 315.88 113.078 315.902 113.078 315.91Z" fill="#263238"/>
<path d="M114.098 311.502C114.061 311.502 114.039 312.47 114.039 313.673C114.039 314.869 114.076 315.844 114.112 315.844C114.149 315.844 114.171 314.876 114.171 313.673C114.164 312.477 114.134 311.502 114.098 311.502Z" fill="#263238"/>
<path d="M118.195 317.846C118.188 317.883 118.877 317.978 119.735 317.978C120.593 317.971 121.283 317.861 121.275 317.831C121.268 317.795 120.586 317.846 119.735 317.853C118.885 317.853 118.195 317.809 118.195 317.846Z" fill="#263238"/>
<path d="M116.129 317.875C116.107 317.905 116.187 318.022 116.261 318.176C116.334 318.33 116.371 318.469 116.407 318.469C116.444 318.469 116.459 318.301 116.371 318.125C116.29 317.941 116.151 317.853 116.129 317.875Z" fill="#263238"/>
<path d="M115.325 316.922C115.303 316.944 115.369 317.054 115.479 317.164C115.589 317.274 115.699 317.34 115.721 317.318C115.743 317.296 115.677 317.186 115.567 317.076C115.464 316.959 115.354 316.893 115.325 316.922Z" fill="#263238"/>
<path d="M114.203 316.489C114.211 316.526 114.35 316.519 114.504 316.577C114.658 316.629 114.775 316.709 114.797 316.687C114.827 316.665 114.731 316.519 114.541 316.46C114.357 316.394 114.196 316.46 114.203 316.489Z" fill="#263238"/>
<path d="M113.416 316.299C113.401 316.336 113.467 316.387 113.555 316.416C113.643 316.446 113.724 316.446 113.739 316.416C113.753 316.38 113.687 316.328 113.599 316.299C113.511 316.262 113.423 316.262 113.416 316.299Z" fill="#263238"/>
<path d="M86.4122 314.465L89.9908 310.116L81.8877 303.36L76.5859 309.668L77.0626 310.116C79.1965 312.103 88.0475 320.069 89.9248 320.861C92.0074 321.748 86.4122 314.465 86.4122 314.465Z" fill="#E8505B"/>
<g opacity="0.5">
<path d="M79.5767 312.052C80.024 311.282 80.1707 310.336 79.98 309.463C79.7894 308.59 79.3054 307.813 78.5794 307.292L76.6875 309.558L79.5767 312.052Z" fill="white"/>
</g>
<g opacity="0.4">
<path d="M89.0448 318.14C89.0448 318.14 90.8781 320.846 90.2474 320.993C89.6168 321.14 80.3625 313.424 76.5859 309.661L76.7473 309.492L87.4609 318.587C87.4609 318.587 88.5608 317.773 89.0448 318.14Z" fill="white"/>
</g>
<path d="M76.625 309.39C76.625 309.39 76.669 309.441 76.7497 309.522C76.867 309.632 76.9917 309.749 77.131 309.881C77.5196 310.233 77.9889 310.666 78.5536 311.172C79.7635 312.257 81.4428 313.724 83.3421 315.316C85.2413 316.9 86.9866 318.301 88.2699 319.291C88.8712 319.754 89.3772 320.142 89.7952 320.458C89.9492 320.575 90.0885 320.678 90.2132 320.766C90.3085 320.839 90.3598 320.868 90.3671 320.868C90.3671 320.868 90.3231 320.824 90.2278 320.744C90.1032 320.648 89.9712 320.538 89.8245 320.414C89.4139 320.091 88.9152 319.688 88.3286 319.218C87.0673 318.206 85.322 316.798 83.4301 315.213C81.5308 313.629 79.8369 312.169 78.6196 311.106C78.0476 310.607 77.5636 310.189 77.175 309.844C77.0283 309.72 76.8963 309.61 76.779 309.507C76.6763 309.419 76.6323 309.382 76.625 309.39Z" fill="#263238"/>
<path d="M87.3536 318.712C87.3829 318.741 87.6982 318.411 88.2115 318.235C88.7248 318.059 89.1795 318.132 89.1868 318.088C89.2015 318.059 88.7249 317.92 88.1749 318.11C87.6176 318.301 87.3242 318.697 87.3536 318.712Z" fill="#263238"/>
<path d="M85.9689 315.507C85.9763 315.544 86.2109 315.5 86.4822 315.412C86.7536 315.324 86.9662 315.228 86.9589 315.192C86.9516 315.155 86.7169 315.199 86.4456 315.287C86.1743 315.375 85.9616 315.47 85.9689 315.507Z" fill="#263238"/>
<path d="M85.6094 314.612C85.6094 314.649 85.8074 314.671 86.0567 314.656C86.2987 314.649 86.4967 314.612 86.4967 314.575C86.4967 314.539 86.2987 314.517 86.0494 314.524C85.8074 314.539 85.6094 314.575 85.6094 314.612Z" fill="#263238"/>
<path d="M85.8301 313.504C85.8081 313.533 85.9767 313.709 86.2114 313.907C86.446 314.105 86.6514 314.245 86.6734 314.215C86.6954 314.186 86.5267 314.01 86.292 313.812C86.0574 313.614 85.8521 313.475 85.8301 313.504Z" fill="#263238"/>
<path d="M86.1368 312.844C86.1075 312.859 86.2395 313.123 86.4962 313.372C86.7528 313.622 87.0241 313.746 87.0388 313.717C87.0608 313.688 86.8335 313.519 86.5842 313.284C86.3422 313.05 86.1735 312.822 86.1368 312.844Z" fill="#263238"/>
<path d="M86.8412 315.03C86.8338 315.037 87.0098 315.228 87.3618 315.462C87.5378 315.58 87.7578 315.697 88.0145 315.8C88.1465 315.851 88.2711 315.91 88.4398 315.932C88.5204 315.939 88.6158 315.939 88.7038 315.881C88.7918 315.822 88.8211 315.697 88.7991 315.609C88.5131 314.934 87.7871 314.802 87.3838 314.905C87.1712 314.949 87.0172 315.037 86.9218 315.11C86.8265 315.184 86.7825 315.235 86.7898 315.242C86.8045 315.264 86.9952 315.066 87.3985 314.993C87.5965 314.956 87.8385 314.971 88.0805 315.074C88.3078 315.169 88.5864 315.374 88.6671 315.631C88.6964 315.763 88.5864 315.829 88.4471 315.807C88.3151 315.793 88.1758 315.734 88.0511 315.69C87.7945 315.595 87.5745 315.484 87.3985 315.382C87.0538 315.176 86.8558 315.015 86.8412 315.03Z" fill="#263238"/>
<path d="M86.9449 315.169C86.9449 315.184 87.1355 315.111 87.3042 314.861C87.3849 314.737 87.4582 314.568 87.4802 314.363C87.4875 314.172 87.5022 313.915 87.2675 313.739C87.1355 313.651 86.9595 313.739 86.9082 313.849C86.8422 313.952 86.8202 314.062 86.8056 314.157C86.7762 314.355 86.7762 314.531 86.7909 314.678C86.8202 314.971 86.9009 315.14 86.9155 315.14C86.9375 315.133 86.8862 314.957 86.8862 314.678C86.8862 314.539 86.8935 314.37 86.9302 314.186C86.9522 314.018 87.0695 313.776 87.2162 313.864C87.3555 313.959 87.3849 314.201 87.3775 314.37C87.3629 314.553 87.3115 314.707 87.2455 314.832C87.0989 315.052 86.9375 315.147 86.9449 315.169Z" fill="#263238"/>
<path d="M78.6412 307.307C78.6265 307.329 78.8905 307.475 79.2205 307.828C79.5505 308.172 79.9318 308.737 80.0785 309.456C80.2251 310.175 80.1005 310.842 79.9318 311.29C79.7632 311.737 79.5798 311.986 79.6018 311.994C79.6092 312.001 79.6605 311.942 79.7412 311.832C79.8218 311.722 79.9245 311.546 80.0198 311.319C80.2105 310.871 80.3571 310.175 80.2031 309.426C80.0492 308.678 79.6385 308.099 79.2865 307.762C79.1105 307.593 78.9492 307.475 78.8319 307.402C78.7145 307.329 78.6412 307.299 78.6412 307.307Z" fill="#263238"/>
<path d="M82.2926 304.636C82.2632 304.614 81.6106 305.333 80.8333 306.243C80.056 307.152 79.4473 307.908 79.4693 307.93C79.4987 307.952 80.1513 307.233 80.9286 306.323C81.7059 305.414 82.3146 304.658 82.2926 304.636Z" fill="#263238"/>
<path d="M81.2508 312.111C81.2288 312.133 81.6834 312.661 82.3361 313.219C82.9887 313.776 83.5827 314.143 83.5973 314.113C83.6193 314.084 83.062 313.673 82.4167 313.123C81.7714 312.573 81.2801 312.089 81.2508 312.111Z" fill="#263238"/>
<path d="M79.6676 310.783C79.631 310.783 79.6163 310.93 79.5723 311.099C79.5283 311.267 79.4623 311.399 79.4916 311.421C79.521 311.443 79.6383 311.326 79.6896 311.135C79.7483 310.945 79.7043 310.783 79.6676 310.783Z" fill="#263238"/>
<path d="M79.6907 309.543C79.6541 309.543 79.6394 309.675 79.6541 309.829C79.6687 309.983 79.7054 310.108 79.7421 310.108C79.7787 310.108 79.7934 309.976 79.7787 309.822C79.7641 309.661 79.7274 309.536 79.6907 309.543Z" fill="#263238"/>
<path d="M79.1186 308.487C79.1039 308.517 79.2066 308.612 79.2946 308.751C79.3826 308.891 79.4119 309.03 79.4486 309.03C79.4852 309.03 79.5072 308.861 79.4046 308.685C79.3019 308.509 79.1333 308.458 79.1186 308.487Z" fill="#263238"/>
<path d="M78.6422 307.82C78.6128 307.835 78.6202 307.915 78.6715 307.996C78.7228 308.077 78.7815 308.128 78.8108 308.113C78.8401 308.099 78.8328 308.018 78.7815 307.937C78.7302 307.857 78.6788 307.805 78.6422 307.82Z" fill="#263238"/>
<path d="M108.363 196.603C108.363 196.603 104.851 211.463 105.848 214.404C106.838 217.346 113.277 219.047 113.277 219.047L113.057 259.748L77.4766 303.741L90.6174 314.494C90.6174 314.494 129.138 270.42 132.533 262.439C135.928 254.459 130.37 195.95 130.37 195.95L108.363 196.603Z" fill="#263238"/>
<path d="M126.539 190.545L128.277 314.157L110.172 314.252L101.093 213.576C99.1721 211.742 96.4736 208.603 96.8476 201.598L97.2875 193.464L126.539 190.545Z" fill="#263238"/>
<path d="M107.454 266.628C107.447 266.62 107.483 266.562 107.557 266.444C107.652 266.305 107.762 266.136 107.901 265.938C108.231 265.469 108.686 264.831 109.243 264.031C110.446 262.366 112.125 260.034 114.156 257.232L114.127 257.327C113.731 253.037 113.254 247.836 112.741 242.225C112.081 234.876 111.553 228.209 111.238 223.382C111.077 220.969 110.974 219.018 110.915 217.661C110.893 217.016 110.879 216.495 110.864 216.106C110.857 215.747 110.857 215.563 110.871 215.563C110.886 215.563 110.908 215.747 110.937 216.106C110.967 216.495 111.011 217.016 111.062 217.661C111.172 219.055 111.319 220.991 111.509 223.368C111.891 228.187 112.463 234.839 113.122 242.196C113.614 247.829 114.12 253.022 114.442 257.335V257.386L114.406 257.43C112.338 260.203 110.615 262.506 109.39 264.149C108.796 264.926 108.327 265.542 107.975 266.004C107.821 266.195 107.696 266.356 107.593 266.481C107.505 266.576 107.461 266.635 107.454 266.628Z" fill="#455A64"/>
<path d="M113.014 215.564C112.999 215.666 110.843 215.402 108.218 214.852C105.6 214.302 103.517 213.679 103.539 213.576C103.569 213.473 105.68 213.928 108.291 214.478C110.909 215.028 113.028 215.454 113.014 215.564Z" fill="#455A64"/>
<path d="M125.406 257.767C125.355 257.885 123.324 256.696 120.515 256.491C117.707 256.249 115.514 257.1 115.485 256.975C115.47 256.938 115.991 256.667 116.893 256.425C117.795 256.176 119.1 256 120.537 256.11C121.974 256.227 123.236 256.608 124.086 256.997C124.959 257.379 125.428 257.731 125.406 257.767Z" fill="#455A64"/>
<path d="M131.791 263.496C131.872 263.562 126.782 270.398 120.417 278.759C114.052 287.128 108.824 293.861 108.743 293.795C108.662 293.729 113.752 286.893 120.117 278.524C126.482 270.163 131.71 263.43 131.791 263.496Z" fill="#455A64"/>
<path d="M129.346 199.728C129.382 199.736 129.133 200.374 128.327 201.071C127.549 201.76 126.119 202.464 124.469 202.303C122.819 202.12 121.565 201.137 120.949 200.293C120.311 199.442 120.201 198.768 120.231 198.768C120.297 198.738 120.495 199.362 121.155 200.125C121.793 200.88 122.988 201.753 124.506 201.922C126.024 202.076 127.373 201.467 128.158 200.865C128.957 200.257 129.287 199.692 129.346 199.728Z" fill="#455A64"/>
<path d="M104.605 136.128C101.657 133.326 99.8607 129.351 99.6994 125.295C99.5381 121.231 101.027 117.131 103.747 114.109" fill="#263238"/>
<path d="M94.432 147.659C94.432 147.659 90.5015 152.104 89.6875 169.099C89.6875 169.099 100.885 171.226 101.09 170.61C101.296 170.001 94.432 147.659 94.432 147.659Z" fill="#E8505B"/>
<g opacity="0.3">
<path d="M94.432 147.659C94.432 147.659 90.5015 152.104 89.6875 169.099C89.6875 169.099 100.885 171.226 101.09 170.61C101.296 170.001 94.432 147.659 94.432 147.659Z" fill="black"/>
</g>
<path d="M96.2503 197.161H130.635L130.078 191.792C130.078 191.792 126.147 171.35 126.177 171.086L126.793 169.788C128.413 166.377 128.472 162.431 126.947 158.969L143.783 153.211L139.662 139.319C132.021 140.61 120.471 142.048 120.471 142.048L118.755 142.195C118.755 142.195 106.832 142.818 106.583 142.847C101.596 143.449 95.7957 143.83 93.6764 149.17C92.5398 152.023 93.6178 156.307 95.473 160.729L99.8802 174.299C101.64 181.758 98.8316 181.399 97.2916 188.909C97.0496 190.024 96.2283 196.119 96.2503 197.161Z" fill="#E8505B"/>
<g opacity="0.3">
<path d="M96.2503 197.161H130.635L130.078 191.792C130.078 191.792 126.147 171.35 126.177 171.086L126.793 169.788C128.413 166.377 128.472 162.431 126.947 158.969L143.783 153.211L139.662 139.319C132.021 140.61 120.471 142.048 120.471 142.048L118.755 142.195C118.755 142.195 106.832 142.818 106.583 142.847C101.596 143.449 95.7957 143.83 93.6764 149.17C92.5398 152.023 93.6178 156.307 95.473 160.729L99.8802 174.299C101.64 181.758 98.8316 181.399 97.2916 188.909C97.0496 190.024 96.2283 196.119 96.2503 197.161Z" fill="black"/>
</g>
<path d="M143.619 153.424C143.626 153.446 143.362 153.564 142.871 153.74C142.38 153.916 141.669 154.165 140.789 154.458C139.029 155.052 136.587 155.845 133.888 156.703C131.19 157.568 128.777 158.426 127.061 159.131C126.203 159.475 125.521 159.783 125.037 159.989C124.561 160.201 124.297 160.311 124.282 160.282C124.267 160.26 124.517 160.106 124.971 159.849C125.433 159.6 126.1 159.255 126.951 158.874C128.645 158.096 131.065 157.194 133.764 156.329C136.469 155.463 138.919 154.715 140.701 154.187C141.595 153.923 142.314 153.718 142.82 153.578C143.333 153.468 143.612 153.402 143.619 153.424Z" fill="#263238"/>
<path d="M141.625 146.031C141.625 146.133 131.461 146.221 118.922 146.221C106.382 146.221 96.2188 146.133 96.2188 146.031C96.2188 145.928 106.382 145.84 118.922 145.84C131.461 145.84 141.625 145.921 141.625 146.031Z" fill="#FAFAFA"/>
<path d="M142.673 152.785C142.673 152.888 131.358 152.976 117.41 152.976C103.456 152.976 92.1406 152.888 92.1406 152.785C92.1406 152.683 103.448 152.595 117.41 152.595C131.358 152.595 142.673 152.675 142.673 152.785Z" fill="#FAFAFA"/>
<path d="M94.9592 160.473C94.9592 160.576 94.0132 160.664 92.8546 160.664C91.6886 160.664 90.75 160.576 90.75 160.473C90.75 160.37 91.696 160.282 92.8546 160.282C94.0132 160.282 94.9592 160.363 94.9592 160.473Z" fill="#FAFAFA"/>
<path d="M128.004 160.7C128.004 160.803 120.605 160.891 111.482 160.891C102.353 160.891 94.9609 160.803 94.9609 160.7C94.9609 160.598 102.36 160.51 111.482 160.51C120.605 160.51 128.004 160.598 128.004 160.7Z" fill="#FAFAFA"/>
<path d="M127.28 168.621C127.28 168.724 120.636 168.812 112.452 168.812C104.261 168.812 97.625 168.724 97.625 168.621C97.625 168.519 104.261 168.431 112.452 168.431C120.636 168.431 127.28 168.519 127.28 168.621Z" fill="#FAFAFA"/>
<path d="M127.063 175.956C127.063 176.059 121.042 176.147 113.621 176.147C106.193 176.147 100.18 176.059 100.18 175.956C100.18 175.854 106.2 175.766 113.621 175.766C121.042 175.766 127.063 175.854 127.063 175.956Z" fill="#FAFAFA"/>
<path d="M128.237 181.898C128.237 182 121.798 182.088 113.857 182.088C105.915 182.088 99.4766 182 99.4766 181.898C99.4766 181.795 105.915 181.707 113.857 181.707C121.798 181.707 128.237 181.795 128.237 181.898Z" fill="#FAFAFA"/>
<path d="M130.103 189.467C130.103 189.57 122.777 189.658 113.743 189.658C104.709 189.658 97.3828 189.57 97.3828 189.467C97.3828 189.364 104.709 189.276 113.743 189.276C122.777 189.276 130.103 189.364 130.103 189.467Z" fill="#FAFAFA"/>
<path d="M99.6671 173.646C99.6451 173.653 99.5351 173.411 99.3665 172.971C99.1685 172.45 98.9265 171.819 98.6405 171.093C98.0318 169.509 97.1812 167.323 96.3012 164.881C95.4139 162.446 94.6806 160.209 94.2187 158.566C93.9913 157.744 93.8153 157.077 93.72 156.614C93.6173 156.152 93.5733 155.888 93.6027 155.881C93.6613 155.866 93.9547 156.871 94.4826 158.485C95.0106 160.098 95.7806 162.314 96.6679 164.749C97.5552 167.184 98.3618 169.384 98.9045 170.998C99.1758 171.805 99.3811 172.457 99.5131 172.92C99.6304 173.382 99.6891 173.638 99.6671 173.646Z" fill="#263238"/>
<defs>
<linearGradient id="paint0_linear_1555_6855" x1="203.522" y1="59.5758" x2="203.522" y2="37.6816" gradientUnits="userSpaceOnUse">
<stop stop-color="#0D534D"/>
<stop offset="1" stop-color="#199A8E"/>
</linearGradient>
</defs>
</svg>
