<svg width="41" height="40" viewBox="0 0 41 40" fill="none" xmlns="http://www.w3.org/2000/svg">
<rect x="21.043" y="11.7715" width="0.770833" height="16.9583" fill="white" fill-opacity="0.77"/>
<g clip-path="url(#clip0_4424_1310)">
<mask id="path-2-inside-1_4424_1310" fill="white">
<path fill-rule="evenodd" clip-rule="evenodd" d="M19.4574 11.9637H19.5452C21.3251 11.9637 22.7195 11.9637 23.8079 12.1101C24.921 12.2597 25.7998 12.5726 26.4897 13.2617C27.1796 13.9516 27.4918 14.8304 27.6413 15.9442C27.7878 17.0319 27.7878 18.4263 27.7878 20.2062V20.274C27.7878 21.7455 27.7878 22.9496 27.7076 23.9301C27.6274 24.9167 27.4632 25.7392 27.0948 26.4237C26.9334 26.7249 26.7317 26.9965 26.4897 27.2385C25.7998 27.9284 24.921 28.2406 23.8072 28.3901C22.7195 28.5366 21.3251 28.5366 19.5452 28.5366H19.4574C17.6775 28.5366 16.2831 28.5366 15.1947 28.3901C14.0816 28.2406 13.2028 27.9276 12.5129 27.2385C11.9017 26.6272 11.5856 25.8664 11.4183 24.9214C11.2526 23.9941 11.2226 22.8401 11.2164 21.4079C11.2154 21.0431 11.2148 20.6571 11.2148 20.2501V20.2054C11.2148 18.4256 11.2148 17.0311 11.3613 15.9427C11.5108 14.8296 11.8238 13.9509 12.5129 13.261C13.2028 12.5711 14.0816 12.2589 15.1954 12.1093C16.2831 11.9629 17.6775 11.9629 19.4574 11.9629M15.3488 13.2548C14.3637 13.3874 13.7694 13.6402 13.3308 14.0788C12.8914 14.5182 12.6393 15.1117 12.5068 16.0976C12.3726 17.0997 12.3711 18.4163 12.3711 20.2493V20.8999L13.1427 20.2247C13.4811 19.9284 13.9196 19.7719 14.3691 19.7867C14.8187 19.8016 15.2458 19.9868 15.5639 20.3048L18.8708 23.6117C19.1274 23.8683 19.4663 24.0261 19.8278 24.0574C20.1893 24.0887 20.5503 23.9915 20.8472 23.7828L21.0769 23.621C21.5052 23.32 22.023 23.1733 22.5456 23.2048C23.0681 23.2363 23.5646 23.4441 23.9536 23.7944L26.1351 25.7577C26.3556 25.2968 26.4858 24.6909 26.5552 23.836C26.6307 22.9072 26.6315 21.7494 26.6315 20.2493C26.6315 18.4163 26.63 17.0997 26.4958 16.0976C26.3633 15.1117 26.1104 14.5174 25.6718 14.0781C25.2324 13.6395 24.6389 13.3874 23.653 13.2548C22.6509 13.1207 21.3343 13.1191 19.5013 13.1191C17.6683 13.1191 16.3509 13.1207 15.3488 13.2548Z"/>
</mask>
<path d="M23.8079 12.1101L23.6079 13.5967L23.6082 13.5968L23.8079 12.1101ZM26.4897 13.2617L27.5503 12.2011L27.5497 12.2005L26.4897 13.2617ZM27.6413 15.9442L26.1546 16.1438L26.1547 16.1444L27.6413 15.9442ZM27.7076 23.9301L26.2126 23.8078L26.2125 23.8086L27.7076 23.9301ZM27.0948 26.4237L25.774 25.7128L25.7726 25.7153L27.0948 26.4237ZM23.8072 28.3901L23.6076 26.9035L23.607 26.9035L23.8072 28.3901ZM15.1947 28.3901L15.3947 26.9035L15.3944 26.9035L15.1947 28.3901ZM12.5129 27.2385L11.4523 28.2992L11.4529 28.2997L12.5129 27.2385ZM11.4183 24.9214L12.8954 24.6599L12.8949 24.6575L11.4183 24.9214ZM11.2164 21.4079L9.71639 21.4121L9.7164 21.4144L11.2164 21.4079ZM11.3613 15.9427L12.8479 16.1427L12.8479 16.1424L11.3613 15.9427ZM12.5129 13.261L11.4523 12.2003L11.4517 12.2009L12.5129 13.261ZM15.1954 12.1093L15.395 13.596L15.3956 13.5959L15.1954 12.1093ZM15.3488 13.2548L15.1498 11.7681L15.1487 11.7682L15.3488 13.2548ZM12.5068 16.0976L11.0201 15.8977L11.02 15.8986L12.5068 16.0976ZM12.3711 20.8999H10.8711V24.2059L13.3589 22.0287L12.3711 20.8999ZM13.1427 20.2247L14.1305 21.3535L14.1307 21.3533L13.1427 20.2247ZM15.5639 20.3048L16.6245 19.2442L16.6244 19.244L15.5639 20.3048ZM18.8708 23.6117L17.8101 24.6724L17.8102 24.6725L18.8708 23.6117ZM20.8472 23.7828L21.7096 25.0101L21.7112 25.009L20.8472 23.7828ZM21.0769 23.621L20.2145 22.3937L20.2128 22.3948L21.0769 23.621ZM23.9536 23.7944L22.95 24.9092L22.9502 24.9094L23.9536 23.7944ZM26.1351 25.7577L25.1316 26.8727L26.6228 28.2147L27.4883 26.4049L26.1351 25.7577ZM26.5552 23.836L25.0601 23.7144L25.0601 23.7147L26.5552 23.836ZM26.4958 16.0976L27.9826 15.8986L27.9825 15.8977L26.4958 16.0976ZM25.6718 14.0781L26.7334 13.0183L26.7316 13.0165L25.6718 14.0781ZM23.653 13.2548L23.8529 11.7682L23.852 11.7681L23.653 13.2548ZM19.4574 13.4637H19.5452V10.4637H19.4574V13.4637ZM19.5452 13.4637C21.3655 13.4637 22.6423 13.4668 23.6079 13.5967L24.008 10.6235C22.7968 10.4605 21.2847 10.4637 19.5452 10.4637V13.4637ZM23.6082 13.5968C24.5545 13.7239 25.0645 13.9583 25.4296 14.323L27.5497 12.2005C26.535 11.1869 25.2875 10.7954 24.0077 10.6235L23.6082 13.5968ZM25.429 14.3224C25.7934 14.6868 26.0274 15.1958 26.1546 16.1438L29.128 15.7447C28.9562 14.4649 28.5657 13.2165 27.5503 12.2011L25.429 14.3224ZM26.1547 16.1444C26.2846 17.1092 26.2878 18.3859 26.2878 20.2062H29.2878C29.2878 18.4668 29.2909 16.9546 29.1279 15.7441L26.1547 16.1444ZM26.2878 20.2062V20.274H29.2878V20.2062H26.2878ZM26.2878 20.274C26.2878 21.7678 26.2866 22.902 26.2126 23.8078L29.2026 24.0523C29.2889 22.9971 29.2878 21.7232 29.2878 20.274H26.2878ZM26.2125 23.8086C26.1384 24.7214 25.9964 25.2995 25.774 25.7128L28.4156 27.1347C28.9301 26.1789 29.1165 25.1121 29.2027 24.0516L26.2125 23.8086ZM25.7726 25.7153C25.6808 25.8866 25.5673 26.0395 25.429 26.1778L27.5503 28.2992C27.8961 27.9534 28.186 27.5632 28.4169 27.1322L25.7726 25.7153ZM25.429 26.1778C25.0646 26.5422 24.5556 26.7762 23.6076 26.9035L24.0068 29.8768C25.2865 29.705 26.5349 29.3145 27.5503 28.2992L25.429 26.1778ZM23.607 26.9035C22.6423 27.0334 21.3656 27.0366 19.5452 27.0366V30.0366C21.2846 30.0366 22.7968 30.0397 24.0074 29.8767L23.607 26.9035ZM19.5452 27.0366H19.4574V30.0366H19.5452V27.0366ZM19.4574 27.0366C17.6371 27.0366 16.3603 27.0335 15.3947 26.9035L14.9946 29.8767C16.2058 30.0397 17.7179 30.0366 19.4574 30.0366V27.0366ZM15.3944 26.9035C14.4481 26.7763 13.9381 26.5419 13.573 26.1772L11.4529 28.2997C12.4676 29.3133 13.7151 29.7048 14.9949 29.8768L15.3944 26.9035ZM13.5736 26.1778C13.2487 25.8529 13.029 25.4149 12.8954 24.6599L9.9413 25.1828C10.1422 26.3179 10.5547 27.4015 11.4523 28.2992L13.5736 26.1778ZM12.8949 24.6575C12.7554 23.8768 12.7226 22.8489 12.7164 21.4015L9.7164 21.4144C9.7225 22.8314 9.7498 24.1113 9.94174 25.1853L12.8949 24.6575ZM12.7164 21.4037C12.7154 21.0404 12.7148 20.6559 12.7148 20.2501H9.71484C9.71484 20.6584 9.71536 21.0457 9.71639 21.4121L12.7164 21.4037ZM12.7148 20.2501V20.2054H9.71484V20.2501H12.7148ZM12.7148 20.2054C12.7148 18.3852 12.718 17.1084 12.8479 16.1427L9.8747 15.7427C9.71172 16.9539 9.71484 18.466 9.71484 20.2054H12.7148ZM12.8479 16.1424C12.9751 15.1961 13.2095 14.6861 13.5742 14.321L11.4517 12.2009C10.4381 13.2156 10.0466 14.4631 9.87466 15.743L12.8479 16.1424ZM13.5736 14.3216C13.938 13.9572 14.447 13.7233 15.395 13.596L14.9958 10.6227C13.7161 10.7945 12.4677 11.1849 11.4523 12.2003L13.5736 14.3216ZM15.3956 13.5959C16.3604 13.466 17.637 13.4629 19.4574 13.4629V10.4629C17.718 10.4629 16.2058 10.4598 14.9952 10.6228L15.3956 13.5959ZM15.1487 11.7682C13.9958 11.9234 13.0331 12.2552 12.2701 13.0182L14.3914 15.1395C14.5057 15.0253 14.7316 14.8514 15.5489 14.7414L15.1487 11.7682ZM12.2701 13.0182C11.5061 13.7822 11.1752 14.7445 11.0201 15.8977L13.9934 16.2976C14.1035 15.479 14.2767 15.2542 14.3914 15.1395L12.2701 13.0182ZM11.02 15.8986C10.8695 17.0234 10.8711 18.4586 10.8711 20.2493H13.8711C13.8711 18.374 13.8758 17.176 13.9935 16.2966L11.02 15.8986ZM10.8711 20.2493V20.8999H13.8711V20.2493H10.8711ZM13.3589 22.0287L14.1305 21.3535L12.1549 19.0959L11.3833 19.7711L13.3589 22.0287ZM14.1307 21.3533C14.1828 21.3077 14.2503 21.2836 14.3195 21.2859L14.4188 18.2876C13.5888 18.2601 12.7795 18.5491 12.1547 19.096L14.1307 21.3533ZM14.3195 21.2859C14.3887 21.2882 14.4544 21.3167 14.5034 21.3657L16.6244 19.244C16.0371 18.657 15.2487 18.3151 14.4188 18.2876L14.3195 21.2859ZM14.5032 21.3655L17.8101 24.6724L19.9314 22.5511L16.6245 19.2442L14.5032 21.3655ZM17.8102 24.6725C18.3165 25.1787 18.9851 25.4901 19.6984 25.5518L19.9572 22.563C19.9474 22.5622 19.9382 22.5579 19.9313 22.551L17.8102 24.6725ZM19.6984 25.5518C20.4117 25.6136 21.1239 25.4218 21.7096 25.0101L19.9847 22.5556C19.9767 22.5612 19.967 22.5638 19.9572 22.563L19.6984 25.5518ZM21.7112 25.009L21.9409 24.8471L20.2128 22.3948L19.9831 22.5567L21.7112 25.009ZM21.9393 24.8483C22.0898 24.7425 22.2717 24.691 22.4553 24.702L22.6359 21.7075C21.7743 21.6555 20.9207 21.8975 20.2145 22.3937L21.9393 24.8483ZM22.4553 24.702C22.6389 24.7131 22.8133 24.7861 22.95 24.9092L24.9572 22.6796C24.3158 22.1021 23.4974 21.7594 22.6359 21.7075L22.4553 24.702ZM22.9502 24.9094L25.1316 26.8727L27.1385 24.6428L24.9571 22.6795L22.9502 24.9094ZM27.4883 26.4049C27.8251 25.7007 27.9753 24.8819 28.0503 23.9574L25.0601 23.7147C24.9964 24.4999 24.886 24.8929 24.7819 25.1105L27.4883 26.4049ZM28.0503 23.9576C28.1319 22.9543 28.1315 21.7267 28.1315 20.2493H25.1315C25.1315 21.7721 25.1296 22.86 25.0601 23.7144L28.0503 23.9576ZM28.1315 20.2493C28.1315 18.4586 28.1331 17.0234 27.9826 15.8986L25.0091 16.2966C25.1268 17.176 25.1315 18.374 25.1315 20.2493H28.1315ZM27.9825 15.8977C27.8273 14.7437 27.4955 13.7817 26.7334 13.0183L24.6102 15.1378C24.7254 15.2532 24.8993 15.4798 25.0092 16.2976L27.9825 15.8977ZM26.7316 13.0165C25.9678 12.2541 25.0062 11.9233 23.8529 11.7682L23.4531 14.7414C24.2716 14.8515 24.4971 15.0248 24.6121 15.1396L26.7316 13.0165ZM23.852 11.7681C22.7273 11.6175 21.292 11.6191 19.5013 11.6191V14.6191C21.3767 14.6191 22.5746 14.6238 23.454 14.7415L23.852 11.7681ZM19.5013 11.6191C17.7106 11.6191 16.2746 11.6175 15.1498 11.7681L15.5478 14.7415C16.4272 14.6238 17.6259 14.6191 19.5013 14.6191V11.6191Z" fill="white" fill-opacity="0.77" mask="url(#path-2-inside-1_4424_1310)"/>
</g>
<g clip-path="url(#clip1_4424_1310)">
<path d="M24.1279 16.125C24.3697 16.1251 24.6027 16.2093 24.7881 16.3613L24.8643 16.4297C25.0596 16.625 25.1689 16.8907 25.1689 17.167C25.1689 17.4431 25.0595 17.708 24.8643 17.9033C24.669 18.0986 24.4041 18.2079 24.1279 18.208C23.8863 18.208 23.6531 18.1244 23.4678 17.9727L23.3906 17.9033C23.1955 17.7081 23.086 17.4431 23.0859 17.167C23.0859 16.9253 23.1704 16.6922 23.3223 16.5068L23.3906 16.4297C23.5615 16.2588 23.786 16.1536 24.0244 16.1299L24.1279 16.125Z" stroke="white" stroke-opacity="0.77"/>
<mask id="path-5-inside-2_4424_1310" fill="white">
<path fill-rule="evenodd" clip-rule="evenodd" d="M21.0003 11.9637H21.0882C22.8681 11.9637 24.2625 11.9637 25.3509 12.1101C26.464 12.2597 27.3428 12.5726 28.0326 13.2617C28.7225 13.9516 29.0347 14.8304 29.1843 15.9442C29.3307 17.0319 29.3307 18.4263 29.3307 20.2062V20.274C29.3307 21.7455 29.3307 22.9496 29.2506 23.9301C29.1704 24.9167 29.0062 25.7392 28.6378 26.4237C28.4764 26.7249 28.2747 26.9965 28.0326 27.2385C27.3428 27.9284 26.464 28.2406 25.3501 28.3901C24.2625 28.5366 22.8681 28.5366 21.0882 28.5366H21.0003C19.2205 28.5366 17.826 28.5366 16.7376 28.3901C15.6245 28.2406 14.7458 27.9276 14.0559 27.2385C13.4446 26.6272 13.1286 25.8664 12.9613 24.9214C12.7956 23.9941 12.7655 22.8401 12.7594 21.4079C12.7583 21.0431 12.7578 20.6571 12.7578 20.2501V20.2054C12.7578 18.4256 12.7578 17.0311 12.9043 15.9427C13.0538 14.8296 13.3668 13.9509 14.0559 13.261C14.7458 12.5711 15.6245 12.2589 16.7384 12.1093C17.826 11.9629 19.2205 11.9629 21.0003 11.9629M16.8918 13.2548C15.9067 13.3874 15.3124 13.6402 14.8737 14.0788C14.4344 14.5182 14.1823 15.1117 14.0497 16.0976C13.9156 17.0997 13.9141 18.4163 13.9141 20.2493V20.8999L14.6857 20.2247C15.0241 19.9284 15.4625 19.7719 15.9121 19.7867C16.3616 19.8016 16.7887 19.9868 17.1069 20.3048L20.4137 23.6117C20.6703 23.8683 21.0092 24.0261 21.3708 24.0574C21.7323 24.0887 22.0933 23.9915 22.3901 23.7828L22.6199 23.621C23.0482 23.32 23.566 23.1733 24.0886 23.2048C24.6111 23.2363 25.1075 23.4441 25.4966 23.7944L27.6781 25.7577C27.8985 25.2968 28.0288 24.6909 28.0982 23.836C28.1737 22.9072 28.1745 21.7494 28.1745 20.2493C28.1745 18.4163 28.1729 17.0997 28.0388 16.0976C27.9062 15.1117 27.6534 14.5174 27.2148 14.0781C26.7754 13.6395 26.1819 13.3874 25.196 13.2548C24.1939 13.1207 22.8773 13.1191 21.0443 13.1191C19.2112 13.1191 17.8939 13.1207 16.8918 13.2548Z"/>
</mask>
<path d="M25.3509 12.1101L25.1509 13.5967L25.1512 13.5968L25.3509 12.1101ZM28.0326 13.2617L29.0933 12.2011L29.0927 12.2005L28.0326 13.2617ZM29.1843 15.9442L27.6976 16.1438L27.6977 16.1444L29.1843 15.9442ZM29.2506 23.9301L27.7556 23.8078L27.7555 23.8086L29.2506 23.9301ZM28.6378 26.4237L27.3169 25.7128L27.3156 25.7153L28.6378 26.4237ZM25.3501 28.3901L25.1506 26.9035L25.15 26.9035L25.3501 28.3901ZM16.7376 28.3901L16.9377 26.9035L16.9374 26.9035L16.7376 28.3901ZM14.0559 27.2385L12.9952 28.2992L12.9958 28.2997L14.0559 27.2385ZM12.9613 24.9214L14.4384 24.6599L14.4379 24.6575L12.9613 24.9214ZM12.7594 21.4079L11.2594 21.4121L11.2594 21.4144L12.7594 21.4079ZM12.9043 15.9427L14.3909 16.1427L14.3909 16.1424L12.9043 15.9427ZM14.0559 13.261L12.9952 12.2003L12.9946 12.2009L14.0559 13.261ZM16.7384 12.1093L16.938 13.596L16.9386 13.5959L16.7384 12.1093ZM16.8918 13.2548L16.6928 11.7681L16.6917 11.7682L16.8918 13.2548ZM14.0497 16.0976L12.5631 15.8977L12.563 15.8986L14.0497 16.0976ZM13.9141 20.8999H12.4141V24.2059L14.9019 22.0287L13.9141 20.8999ZM14.6857 20.2247L15.6735 21.3535L15.6737 21.3533L14.6857 20.2247ZM17.1069 20.3048L18.1675 19.2442L18.1673 19.244L17.1069 20.3048ZM20.4137 23.6117L19.3531 24.6724L19.3532 24.6725L20.4137 23.6117ZM22.3901 23.7828L23.2526 25.0101L23.2542 25.009L22.3901 23.7828ZM22.6199 23.621L21.7575 22.3937L21.7558 22.3948L22.6199 23.621ZM25.4966 23.7944L24.493 24.9092L24.4932 24.9094L25.4966 23.7944ZM27.6781 25.7577L26.6746 26.8727L28.1657 28.2147L29.0313 26.4049L27.6781 25.7577ZM28.0982 23.836L26.6031 23.7144L26.6031 23.7147L28.0982 23.836ZM28.0388 16.0976L29.5256 15.8986L29.5254 15.8977L28.0388 16.0976ZM27.2148 14.0781L28.2764 13.0183L28.2745 13.0165L27.2148 14.0781ZM25.196 13.2548L25.3959 11.7682L25.395 11.7681L25.196 13.2548ZM21.0003 13.4637H21.0882V10.4637H21.0003V13.4637ZM21.0882 13.4637C22.9085 13.4637 24.1853 13.4668 25.1509 13.5967L25.551 10.6235C24.3397 10.4605 22.8277 10.4637 21.0882 10.4637V13.4637ZM25.1512 13.5968C26.0975 13.7239 26.6075 13.9583 26.9726 14.323L29.0927 12.2005C28.078 11.1869 26.8305 10.7954 25.5506 10.6235L25.1512 13.5968ZM26.972 14.3224C27.3364 14.6868 27.5703 15.1958 27.6976 16.1438L30.6709 15.7447C30.4991 14.4649 30.1087 13.2165 29.0933 12.2011L26.972 14.3224ZM27.6977 16.1444C27.8276 17.1092 27.8307 18.3859 27.8307 20.2062H30.8307C30.8307 18.4668 30.8339 16.9546 30.6709 15.7441L27.6977 16.1444ZM27.8307 20.2062V20.274H30.8307V20.2062H27.8307ZM27.8307 20.274C27.8307 21.7678 27.8296 22.902 27.7556 23.8078L30.7456 24.0523C30.8318 22.9971 30.8307 21.7232 30.8307 20.274H27.8307ZM27.7555 23.8086C27.6813 24.7214 27.5394 25.2995 27.3169 25.7128L29.9586 27.1347C30.473 26.1789 30.6595 25.1121 30.7456 24.0516L27.7555 23.8086ZM27.3156 25.7153C27.2238 25.8866 27.1103 26.0395 26.972 26.1778L29.0933 28.2992C29.4391 27.9534 29.729 27.5632 29.9599 27.1322L27.3156 25.7153ZM26.972 26.1778C26.6076 26.5422 26.0985 26.7762 25.1506 26.9035L25.5497 29.8768C26.8295 29.705 28.0779 29.3145 29.0933 28.2992L26.972 26.1778ZM25.15 26.9035C24.1852 27.0334 22.9085 27.0366 21.0882 27.0366V30.0366C22.8276 30.0366 24.3398 30.0397 25.5503 29.8767L25.15 26.9035ZM21.0882 27.0366H21.0003V30.0366H21.0882V27.0366ZM21.0003 27.0366C19.1801 27.0366 17.9033 27.0335 16.9377 26.9035L16.5376 29.8767C17.7488 30.0397 19.2609 30.0366 21.0003 30.0366V27.0366ZM16.9374 26.9035C15.991 26.7763 15.481 26.5419 15.116 26.1772L12.9958 28.2997C14.0106 29.3133 15.258 29.7048 16.5379 29.8768L16.9374 26.9035ZM15.1166 26.1778C14.7916 25.8529 14.572 25.4149 14.4384 24.6599L11.4843 25.1828C11.6852 26.3179 12.0976 27.4015 12.9952 28.2992L15.1166 26.1778ZM14.4379 24.6575C14.2984 23.8768 14.2656 22.8489 14.2593 21.4015L11.2594 21.4144C11.2655 22.8314 11.2928 24.1113 11.4847 25.1853L14.4379 24.6575ZM14.2593 21.4037C14.2583 21.0404 14.2578 20.6559 14.2578 20.2501H11.2578C11.2578 20.6584 11.2583 21.0457 11.2594 21.4121L14.2593 21.4037ZM14.2578 20.2501V20.2054H11.2578V20.2501H14.2578ZM14.2578 20.2054C14.2578 18.3852 14.2609 17.1084 14.3909 16.1427L11.4177 15.7427C11.2547 16.9539 11.2578 18.466 11.2578 20.2054H14.2578ZM14.3909 16.1424C14.518 15.1961 14.7525 14.6861 15.1171 14.321L12.9946 12.2009C11.981 13.2156 11.5896 14.4631 11.4176 15.743L14.3909 16.1424ZM15.1166 14.3216C15.481 13.9572 15.99 13.7233 16.938 13.596L16.5388 10.6227C15.2591 10.7945 14.0106 11.1849 12.9952 12.2003L15.1166 14.3216ZM16.9386 13.5959C17.9033 13.466 19.18 13.4629 21.0003 13.4629V10.4629C19.2609 10.4629 17.7488 10.4598 16.5382 10.6228L16.9386 13.5959ZM16.6917 11.7682C15.5388 11.9234 14.5761 12.2552 13.8131 13.0182L15.9344 15.1395C16.0486 15.0253 16.2746 14.8514 17.0919 14.7414L16.6917 11.7682ZM13.8131 13.0182C13.0491 13.7822 12.7182 14.7445 12.5631 15.8977L15.5363 16.2976C15.6464 15.479 15.8197 15.2542 15.9344 15.1395L13.8131 13.0182ZM12.563 15.8986C12.4124 17.0234 12.4141 18.4586 12.4141 20.2493H15.4141C15.4141 18.374 15.4188 17.176 15.5365 16.2966L12.563 15.8986ZM12.4141 20.2493V20.8999H15.4141V20.2493H12.4141ZM14.9019 22.0287L15.6735 21.3535L13.6978 19.0959L12.9262 19.7711L14.9019 22.0287ZM15.6737 21.3533C15.7258 21.3077 15.7932 21.2836 15.8624 21.2859L15.9617 18.2876C15.1318 18.2601 14.3225 18.5491 13.6977 19.096L15.6737 21.3533ZM15.8624 21.2859C15.9317 21.2882 15.9974 21.3167 16.0464 21.3657L18.1673 19.244C17.5801 18.657 16.7916 18.3151 15.9617 18.2876L15.8624 21.2859ZM16.0462 21.3655L19.3531 24.6724L21.4744 22.5511L18.1675 19.2442L16.0462 21.3655ZM19.3532 24.6725C19.8595 25.1787 20.5281 25.4901 21.2414 25.5518L21.5001 22.563C21.4904 22.5622 21.4812 22.5579 21.4743 22.551L19.3532 24.6725ZM21.2414 25.5518C21.9546 25.6136 22.6668 25.4218 23.2526 25.0101L21.5277 22.5556C21.5197 22.5612 21.5099 22.5638 21.5001 22.563L21.2414 25.5518ZM23.2542 25.009L23.4839 24.8471L21.7558 22.3948L21.5261 22.5567L23.2542 25.009ZM23.4823 24.8483C23.6327 24.7425 23.8147 24.691 23.9983 24.702L24.1788 21.7075C23.3173 21.6555 22.4636 21.8975 21.7575 22.3937L23.4823 24.8483ZM23.9983 24.702C24.1819 24.7131 24.3563 24.7861 24.493 24.9092L26.5002 22.6796C25.8588 22.1021 25.0403 21.7594 24.1788 21.7075L23.9983 24.702ZM24.4932 24.9094L26.6746 26.8727L28.6815 24.6428L26.5001 22.6795L24.4932 24.9094ZM29.0313 26.4049C29.3681 25.7007 29.5182 24.8819 29.5933 23.9574L26.6031 23.7147C26.5394 24.4999 26.429 24.8929 26.3249 25.1105L29.0313 26.4049ZM29.5932 23.9576C29.6748 22.9543 29.6745 21.7267 29.6745 20.2493H26.6745C26.6745 21.7721 26.6726 22.86 26.6031 23.7144L29.5932 23.9576ZM29.6745 20.2493C29.6745 18.4586 29.6761 17.0234 29.5256 15.8986L26.5521 16.2966C26.6698 17.176 26.6745 18.374 26.6745 20.2493H29.6745ZM29.5254 15.8977C29.3702 14.7437 29.0384 13.7817 28.2764 13.0183L26.1532 15.1378C26.2684 15.2532 26.4422 15.4798 26.5522 16.2976L29.5254 15.8977ZM28.2745 13.0165C27.5108 12.2541 26.5492 11.9233 25.3959 11.7682L24.9961 14.7414C25.8146 14.8515 26.04 15.0248 26.1551 15.1396L28.2745 13.0165ZM25.395 11.7681C24.2702 11.6175 22.835 11.6191 21.0443 11.6191V14.6191C22.9196 14.6191 24.1176 14.6238 24.997 14.7415L25.395 11.7681ZM21.0443 11.6191C19.2536 11.6191 17.8176 11.6175 16.6928 11.7681L17.0908 14.7415C17.9702 14.6238 19.1689 14.6191 21.0443 14.6191V11.6191Z" fill="white" fill-opacity="0.77" mask="url(#path-5-inside-2_4424_1310)"/>
</g>
<defs>
<clipPath id="clip0_4424_1310">
<rect width="10.0208" height="18.5" fill="white" transform="translate(10.25 11)"/>
</clipPath>
<clipPath id="clip1_4424_1310">
<rect width="7.70833" height="18.5" fill="white" transform="matrix(-1 0 0 1 30.293 11)"/>
</clipPath>
</defs>
</svg>
