<svg width="30" height="29" viewBox="0 0 30 29" fill="none" xmlns="http://www.w3.org/2000/svg">
<rect x="1.25" y="1.25" width="26.5" height="26.5" rx="13.25" stroke="white" stroke-width="1.5"/>
<path d="M14.5175 6.9248C11.7591 6.9248 9.51747 9.16647 9.51747 11.9248V14.3331C9.51747 14.8415 9.30081 15.6165 9.04247 16.0498L8.08414 17.6415C7.49247 18.6248 7.90081 19.7165 8.98414 20.0831C12.5758 21.2831 16.4508 21.2831 20.0425 20.0831C21.0508 19.7498 21.4925 18.5581 20.9425 17.6415L19.9841 16.0498C19.7341 15.6165 19.5175 14.8415 19.5175 14.3331V11.9248C19.5175 9.1748 17.2675 6.9248 14.5175 6.9248Z" stroke="white" stroke-miterlimit="10" stroke-linecap="round"/>
<path d="M16.0599 7.16621C15.8016 7.09121 15.5349 7.03288 15.2599 6.99954C14.4599 6.89954 13.6932 6.95788 12.9766 7.16621C13.2182 6.54954 13.8182 6.11621 14.5182 6.11621C15.2182 6.11621 15.8182 6.54954 16.0599 7.16621Z" stroke="white" stroke-miterlimit="10" stroke-linecap="round" stroke-linejoin="round"/>
<path d="M17.0156 20.3838C17.0156 21.7588 15.8906 22.8838 14.5156 22.8838C13.8323 22.8838 13.199 22.6005 12.749 22.1505C12.299 21.7005 12.0156 21.0671 12.0156 20.3838" stroke="white" stroke-miterlimit="10"/>
<circle cx="25" cy="5" r="4.25" fill="#EF4770" stroke="#F9FAFB" stroke-width="0.5"/>
</svg>
