<svg width="21" height="18" viewBox="0 0 21 18" fill="none" xmlns="http://www.w3.org/2000/svg">
<path d="M11.375 2.68555L12.8924 5.803C13.1392 6.30996 13.2625 6.56344 13.4544 6.77666C13.6245 6.96563 13.8334 7.13073 14.0725 7.2651C14.3424 7.4167 14.6632 7.5142 15.3047 7.70918L19.25 8.9082L15.3047 10.1072C14.6632 10.3022 14.3424 10.3997 14.0726 10.5513C13.8334 10.6857 13.6245 10.8508 13.4544 11.0397C13.2625 11.253 13.1392 11.5064 12.8924 12.0134L11.375 15.1309L9.85759 12.0134C9.61083 11.5064 9.48745 11.253 9.29559 11.0397C9.12554 10.8508 8.9166 10.6857 8.67745 10.5513C8.40762 10.3997 8.08683 10.3022 7.44526 10.1072L3.5 8.9082L7.44525 7.70918C8.08683 7.5142 8.40762 7.41671 8.67745 7.2651C8.9166 7.13073 9.12554 6.96563 9.29559 6.77666C9.48745 6.56344 9.61083 6.30996 9.85759 5.803L11.375 2.68555Z" fill="#FDE272"/>
<path d="M3.9375 15.8223V12.3652M3.9375 5.45117V1.99414M1.75 3.72266H6.125M1.75 14.0938H6.125M11.375 2.68555L9.85759 5.803C9.61083 6.30996 9.48745 6.56344 9.29559 6.77666C9.12554 6.96563 8.9166 7.13073 8.67745 7.2651C8.40762 7.41671 8.08683 7.5142 7.44525 7.70918L3.5 8.9082L7.44526 10.1072C8.08683 10.3022 8.40762 10.3997 8.67745 10.5513C8.9166 10.6857 9.12554 10.8508 9.29559 11.0397C9.48745 11.253 9.61083 11.5064 9.85759 12.0134L11.375 15.1309L12.8924 12.0134C13.1392 11.5064 13.2625 11.253 13.4544 11.0397C13.6245 10.8508 13.8334 10.6857 14.0726 10.5513C14.3424 10.3997 14.6632 10.3022 15.3047 10.1072L19.25 8.9082L15.3047 7.70918C14.6632 7.5142 14.3424 7.4167 14.0726 7.2651C13.8334 7.13073 13.6245 6.96563 13.4544 6.77666C13.2625 6.56344 13.1392 6.30996 12.8924 5.803L11.375 2.68555Z" stroke="#FEC84B" stroke-width="1.5" stroke-linecap="round" stroke-linejoin="round"/>
</svg>
