<svg width="41" height="40" viewBox="0 0 41 40" fill="none" xmlns="http://www.w3.org/2000/svg">
<path opacity="0.77" d="M20.2044 14.2402C19.8069 14.2402 19.4844 14.5626 19.4844 14.9602V21.6802C19.4844 22.0779 19.8069 22.4002 20.2044 22.4002C20.6018 22.4002 20.9244 22.0779 20.9244 21.6802V14.9602C20.9244 14.5626 20.6018 14.2402 20.2044 14.2402Z" fill="white"/>
<path opacity="0.77" d="M30.8882 13.7137C30.8882 13.7137 30.5488 12.6956 29.8698 12.0169C29.1911 11.3379 28.173 10.9986 28.173 10.9986L26.0159 13.1557C24.8646 12.3685 23.5466 11.8102 22.1267 11.5419V8.48C22.1267 8.48 21.1667 8 20.2067 8C19.2467 8 18.2867 8.48 18.2867 8.48V11.5419C13.5112 12.4448 9.88672 16.6458 9.88672 21.68C9.88672 27.3704 14.5163 32 20.2067 32C25.8971 32 30.5267 27.3704 30.5267 21.68C30.5267 19.527 29.8631 17.5268 28.731 15.8708L30.8882 13.7137ZM20.2067 30.56C15.3102 30.56 11.3267 26.5765 11.3267 21.68C11.3267 16.7835 15.3102 12.8 20.2067 12.8C25.1032 12.8 29.0867 16.7835 29.0867 21.68C29.0867 26.5765 25.1032 30.56 20.2067 30.56Z" fill="white"/>
</svg>
