<svg width="25" height="24" viewBox="0 0 25 24" fill="none" xmlns="http://www.w3.org/2000/svg">
<rect x="13.043" y="3.77148" width="0.770833" height="16.9583" fill="#199A8E"/>
<g clip-path="url(#clip0_4424_1344)">
<path fill-rule="evenodd" clip-rule="evenodd" d="M11.4574 3.96366H11.5452C13.3251 3.96366 14.7195 3.96366 15.8079 4.11012C16.921 4.25966 17.7998 4.57262 18.4897 5.26174C19.1796 5.95164 19.4918 6.83039 19.6413 7.94424C19.7878 9.03189 19.7878 10.4263 19.7878 12.2062V12.274C19.7878 13.7455 19.7878 14.9496 19.7076 15.9301C19.6274 16.9167 19.4632 17.7392 19.0948 18.4237C18.9334 18.7249 18.7317 18.9965 18.4897 19.2385C17.7998 19.9284 16.921 20.2406 15.8072 20.3901C14.7195 20.5366 13.3251 20.5366 11.5452 20.5366H11.4574C9.67751 20.5366 8.28307 20.5366 7.19466 20.3901C6.08157 20.2406 5.20282 19.9276 4.51293 19.2385C3.90166 18.6272 3.58561 17.8664 3.41834 16.9214C3.25261 15.9941 3.22255 14.8401 3.21639 13.4079C3.21536 13.0431 3.21484 12.6571 3.21484 12.2501V12.2054C3.21484 10.4256 3.21484 9.03112 3.3613 7.9427C3.51084 6.82962 3.8238 5.95087 4.51293 5.26097C5.20282 4.57108 6.08157 4.25889 7.19543 4.10935C8.28307 3.96289 9.67751 3.96289 11.4574 3.96289M7.34882 5.25481C6.3637 5.38739 5.76939 5.64022 5.33078 6.07883C4.89141 6.5182 4.63934 7.11174 4.50676 8.09764C4.37264 9.09972 4.37109 10.4163 4.37109 12.2493V12.8999L5.1427 12.2247C5.48115 11.9284 5.91956 11.7719 6.36912 11.7867C6.81868 11.8016 7.24577 11.9868 7.56389 12.3048L10.8708 15.6117C11.1274 15.8683 11.4663 16.0261 11.8278 16.0574C12.1893 16.0887 12.5503 15.9915 12.8472 15.7828L13.0769 15.621C13.5052 15.32 14.023 15.1733 14.5456 15.2048C15.0681 15.2363 15.5646 15.4441 15.9536 15.7944L18.1351 17.7577C18.3556 17.2968 18.4858 16.6909 18.5552 15.836C18.6307 14.9072 18.6315 13.7494 18.6315 12.2493C18.6315 10.4163 18.63 9.09972 18.4958 8.09764C18.3633 7.11174 18.1104 6.51743 17.6718 6.07806C17.2324 5.63945 16.6389 5.38739 15.653 5.25481C14.6509 5.12068 13.3343 5.11914 11.5013 5.11914C9.66826 5.11914 8.35091 5.12068 7.34882 5.25481Z" fill="#199A8E"/>
</g>
<g clip-path="url(#clip1_4424_1344)">
<path d="M17.6693 9.16667C17.6693 9.57554 17.5068 9.96767 17.2177 10.2568C16.9286 10.5459 16.5365 10.7083 16.1276 10.7083C15.7187 10.7083 15.3266 10.5459 15.0375 10.2568C14.7484 9.96767 14.5859 9.57554 14.5859 9.16667C14.5859 8.75779 14.7484 8.36566 15.0375 8.07654C15.3266 7.78743 15.7187 7.625 16.1276 7.625C16.5365 7.625 16.9286 7.78743 17.2177 8.07654C17.5068 8.36566 17.6693 8.75779 17.6693 9.16667Z" fill="#199A8E"/>
<path fill-rule="evenodd" clip-rule="evenodd" d="M13.0003 3.96366H13.0882C14.8681 3.96366 16.2625 3.96366 17.3509 4.11012C18.464 4.25966 19.3428 4.57262 20.0326 5.26174C20.7225 5.95164 21.0347 6.83039 21.1843 7.94424C21.3307 9.03189 21.3307 10.4263 21.3307 12.2062V12.274C21.3307 13.7455 21.3307 14.9496 21.2506 15.9301C21.1704 16.9167 21.0062 17.7392 20.6378 18.4237C20.4764 18.7249 20.2747 18.9965 20.0326 19.2385C19.3428 19.9284 18.464 20.2406 17.3501 20.3901C16.2625 20.5366 14.8681 20.5366 13.0882 20.5366H13.0003C11.2205 20.5366 9.82604 20.5366 8.73763 20.3901C7.62454 20.2406 6.74579 19.9276 6.0559 19.2385C5.44463 18.6272 5.12858 17.8664 4.96131 16.9214C4.79558 15.9941 4.76552 14.8401 4.75935 13.4079C4.75833 13.0431 4.75781 12.6571 4.75781 12.2501V12.2054C4.75781 10.4256 4.75781 9.03112 4.90427 7.9427C5.05381 6.82962 5.36677 5.95087 6.0559 5.26097C6.74579 4.57108 7.62454 4.25889 8.7384 4.10935C9.82604 3.96289 11.2205 3.96289 13.0003 3.96289M8.89179 5.25481C7.90667 5.38739 7.31235 5.64022 6.87375 6.07883C6.43438 6.5182 6.18231 7.11174 6.04973 8.09764C5.9156 9.09972 5.91406 10.4163 5.91406 12.2493V12.8999L6.68567 12.2247C7.02412 11.9284 7.46253 11.7719 7.91209 11.7867C8.36165 11.8016 8.78874 11.9868 9.10685 12.3048L12.4137 15.6117C12.6703 15.8683 13.0092 16.0261 13.3708 16.0574C13.7323 16.0887 14.0933 15.9915 14.3901 15.7828L14.6199 15.621C15.0482 15.32 15.566 15.1733 16.0886 15.2048C16.6111 15.2363 17.1075 15.4441 17.4966 15.7944L19.6781 17.7577C19.8985 17.2968 20.0288 16.6909 20.0982 15.836C20.1737 14.9072 20.1745 13.7494 20.1745 12.2493C20.1745 10.4163 20.1729 9.09972 20.0388 8.09764C19.9062 7.11174 19.6534 6.51743 19.2148 6.07806C18.7754 5.63945 18.1819 5.38739 17.196 5.25481C16.1939 5.12068 14.8773 5.11914 13.0443 5.11914C11.2112 5.11914 9.89388 5.12068 8.89179 5.25481Z" fill="#199A8E"/>
</g>
<defs>
<clipPath id="clip0_4424_1344">
<rect width="10.0208" height="18.5" fill="white" transform="translate(2.25 3)"/>
</clipPath>
<clipPath id="clip1_4424_1344">
<rect width="7.70833" height="18.5" fill="white" transform="matrix(-1 0 0 1 22.293 3)"/>
</clipPath>
</defs>
</svg>
